<svg xmlns="http://www.w3.org/2000/svg" height="24" viewBox="0 -960 960 960" width="24" fill="currentColor"><path d="M401-483.065q-68.087 0-115.609-47.522-47.522-47.522-47.522-115.609 0-68.087 47.522-115.489T401-809.087q68.087 0 115.609 47.402 47.522 47.402 47.522 115.489t-47.522 115.609Q469.087-483.065 401-483.065ZM124.37-160.804q-17.878 0-30.19-12.312-12.31-12.311-12.31-30.188v-72.109q0-36.087 19.021-65.261 19.022-29.174 47.522-43.674 55-27.5 119.543-44.359 64.544-16.858 132.938-16.858h15.139q8.032 0 14.989 2-7.478 17.5-14.772 40.32-7.293 22.82-10.772 43.68h-3.898q-61.689 0-116.2 15.152-54.51 15.152-97.01 36.465-9.5 4.948-15 13.589-5.5 8.642-5.5 20.142v27.413h244.652q5.978 23.13 17.25 45.217t24.446 40.783H124.37Zm276.622-408.262q31.812 0 54.475-22.654 22.663-22.655 22.663-54.467 0-31.813-22.654-54.357-22.655-22.543-54.468-22.543-31.812 0-54.475 22.587-22.663 22.586-22.663 54.304 0 31.816 22.654 54.473 22.655 22.657 54.468 22.657Zm.008-77.13Zm11.522 399.392Zm270.093-.566q31.863 0 54.016-22.586 22.152-22.587 22.152-54.305 0-31.717-22.203-54.119t-53.997-22.402q-31.794 0-54.503 22.537-22.71 22.537-22.71 54.184 0 31.648 22.69 54.17 22.691 22.521 54.555 22.521Zm-52.267 62.305q-11.044-4.522-21.565-10.152-10.522-5.631-20.805-13.413l-42.043 12.261q-7.588 2.478-14.349-.5-6.76-2.979-10.57-9.413l-21.907-37.24q-4.479-6.656-2.859-14.502 1.62-7.846 7.837-13.563l31.783-26.543q-2.74-12.805-2.62-25.446.12-12.641 2.62-25.446l-32.283-27.782q-6.138-5.255-7.547-13.063-1.41-7.807 3.069-14.763l21.907-37.479q3.81-6.434 10.79-9.293 6.979-2.859 14.822-.381l41.35 13.261q10.283-7.782 20.805-13.413 10.521-5.63 21.565-10.152l7.761-41.304q2.249-7.828 7.873-12.86 5.623-5.032 13.496-5.032h45.196q7.873 0 13.497 5.032 5.623 5.032 7.873 12.86l7.761 41.304q12.043 4.522 22.684 10.283 10.642 5.761 20.924 15.282l39.805-14.521q7.456-2.979 14.841.13 7.385 3.109 11.746 9.565l21.739 38.718q3.739 6.956 2.619 14.513-1.119 7.558-7.537 13.239l-31.343 27.856q2.239 12.044 2.119 24.446-.119 12.402-2.119 24.446l31.282 26.543q6.218 5.217 7.587 13.163 1.37 7.946-3.108 14.902l-21.907 37.24q-3.811 6.434-10.887 9.413-7.076 2.978-14.752.566l-40.085-12.327q-10.282 7.782-20.924 13.413-10.641 5.63-22.684 10.152l-7.761 41.304q-2.25 7.828-7.873 12.86-5.624 5.032-13.497 5.032h-45.196q-7.873 0-13.496-5.032-5.624-5.032-7.873-12.86l-7.761-41.304Z"/></svg>