<svg xmlns="http://www.w3.org/2000/svg" height="24" viewBox="0 -960 960 960" width="24" fill="currentColor"><path d="M439.5-440H242.37q-17.028 0-28.764-11.762-11.737-11.761-11.737-28.826 0-17.064 11.737-28.738Q225.342-521 242.37-521H439.5v-197.13q0-17.028 11.762-28.764 11.761-11.737 28.826-11.737 17.064 0 28.738 11.737Q520.5-735.158 520.5-718.13V-521h197.13q17.028 0 28.764 11.762 11.737 11.761 11.737 28.826 0 17.064-11.737 28.738Q734.658-440 717.63-440H520.5v197.13q0 17.028-11.762 28.764-11.761 11.737-28.826 11.737-17.064 0-28.738-11.737Q439.5-225.842 439.5-242.87V-440Z"/></svg>