<svg xmlns="http://www.w3.org/2000/svg" height="24" viewBox="0 -960 960 960" width="24" fill="currentColor"><path d="M280.37-121.869q-35.721 0-60.861-25.14t-25.14-60.861v-506.5h-1.5q-17.652 0-30.326-12.673-12.674-12.674-12.674-30.327 0-17.652 12.674-30.326t30.326-12.674H356.5v-.5q0-17.652 12.674-30.326T399.5-843.87h161.522q17.652 0 30.326 12.674t12.674 30.326v.5h164.109q17.652 0 30.326 12.674t12.674 30.326q0 17.653-12.674 30.327-12.674 12.673-30.326 12.673h-1.5v506.5q0 35.721-25.14 60.861t-60.861 25.14H280.37ZM680.63-714.37H280.37v506.5h400.26v-506.5ZM360.696-283.739h80.5v-355h-80.5v355Zm159.108 0h80.5v-355h-80.5v355ZM280.37-714.37v506.5-506.5Z"/></svg>