<svg xmlns="http://www.w3.org/2000/svg" height="20" viewBox="0 -960 960 960" width="20" fill="currentColor"><path d="M770.957-599.37 601.761-769.804l44.565-44.805q24.551-24.456 58.2-24.695 33.648-.239 59.095 24.842l53.084 53.119q24.447 24.082 23.23 59.147-1.218 35.066-24.737 58.585l-44.241 44.241ZM173.826-127.674q-17.877 0-31.189-13.311-13.311-13.312-13.311-31.189V-279.18q0-8.733 3.109-16.356 3.108-7.622 9.565-14.007l405.261-405.261 169.435 169.195-405.261 405.261q-6.439 6.457-14.249 9.565-7.81 3.109-16.316 3.109H173.826Z"/></svg>