<svg xmlns="http://www.w3.org/2000/svg" height="24" viewBox="0 -960 960 960" width="24" fill="currentColor"><path d="M208.152-206.261h48.174l344.609-344.848-48.174-48.173-344.609 344.847v48.174ZM765.957-604.37 605.761-763.804l51.565-51.805q22.551-22.456 55.2-22.695 32.648-.239 56.095 22.842l49.084 49.119q23.447 23.082 23.23 55.147-.218 32.066-22.737 54.585l-52.241 52.241ZM171.826-127.674q-17.877 0-30.189-12.311-12.311-12.312-12.311-30.189V-270.18q0-8.733 3.228-16.475 3.229-7.742 9.446-13.888l410.261-410.261 160.435 160.195-410.261 410.261q-6.2 6.218-14.13 9.446-7.929 3.228-16.435 3.228H171.826Zm405.261-447.522-24.326-24.086 48.174 48.173-23.848-24.087Z"/></svg>