<svg xmlns="http://www.w3.org/2000/svg" height="24" viewBox="0 -960 960 960" width="24" fill="currentColor"><path d="M89.587-160.804q-17.652 0-30.076-12.424t-12.424-30.076v-72.109q0-35.152 17.945-64.315 17.946-29.163 48.598-44.62 61.718-30.239 125.174-45.728 63.457-15.489 127.913-15.489 64.935 0 128.142 15.369 63.206 15.37 124.445 45.609 30.653 15.457 48.598 44.5 17.946 29.044 17.946 64.674v72.109q0 17.652-12.424 30.076t-30.076 12.424H89.587Zm654.218 0q10.956-5.957 17.543-17.391 6.587-11.435 6.587-26.609v-76.892q0-44.456-24.011-84.402-24.011-39.945-68.728-71.032 45.869 6.478 86.706 19.869t77.381 33.174q35.456 18.5 54.543 45.25 19.087 26.75 19.087 57.859v77.674q0 17.652-12.424 30.076t-30.076 12.424H743.805ZM366.717-483.065q-65.913 0-111.989-46.076-46.076-46.077-46.076-111.99t46.076-111.989q46.076-46.076 111.989-46.076 65.913 0 111.99 46.076 46.076 46.076 46.076 111.989 0 65.913-46.076 111.99-46.077 46.076-111.99 46.076Zm393.718-158.566q0 65.174-46.196 111.62-46.195 46.446-111.869 46.446-9.739 0-25.25-2.37-15.511-2.369-26.468-5.848 26.979-30.978 41.348-69.435 14.37-38.456 14.37-80.413 0-41.456-14.37-80.163-14.369-38.706-41.348-69.685 12.739-4.739 25.739-6.228 13-1.489 25.979-1.489 65.674 0 111.869 46.196 46.196 46.195 46.196 111.369Z"/></svg>