<svg xmlns="http://www.w3.org/2000/svg" height="20" viewBox="0 -960 960 960" width="20" fill="currentColor"><path d="M420.522-262.978q-16.036 0-27.399-11.285-11.362-11.285-11.362-27.207 0-15.921 11.524-27.595t27.476-11.674h118.717q16.036 0 27.399 11.463 11.362 11.464 11.362 27.385 0 15.922-11.524 27.417-11.524 11.496-27.476 11.496H420.522ZM278.587-441.239q-16.036 0-27.399-11.285-11.362-11.285-11.362-27.207 0-15.921 11.362-27.595Q262.551-519 278.587-519h402.087q16.036 0 27.398 11.463 11.363 11.464 11.363 27.385 0 15.922-11.363 27.417-11.362 11.496-27.398 11.496H278.587ZM184.63-619.5q-16.036 0-27.398-11.285-11.363-11.285-11.363-27.207 0-15.921 11.524-27.595t27.477-11.674h590.5q16.036 0 27.398 11.463 11.363 11.464 11.363 27.385 0 15.922-11.524 27.417Q791.083-619.5 775.13-619.5h-590.5Z"/></svg>