<svg xmlns="http://www.w3.org/2000/svg" height="48" viewBox="0 -960 960 960" width="48" fill="currentColor"><path d="M479.783-158.522q-133.892 0-227.935-94.043Q157.804-346.609 157.804-480q0-133.391 94.044-227.554 94.043-94.164 227.935-94.164 85.434 0 150.5 34.729 65.065 34.728 112.282 96.663v-101.457q0-12.574 8.311-21.254 8.311-8.681 21.624-8.681 13.074 0 21.755 8.681 8.68 8.68 8.68 21.254v194.348q0 14.174-9.565 23.62-9.566 9.445-23.74 9.445H575.043q-12.972 0-21.334-8.68-8.361-8.68-8.361-21.754 0-12.473 8.43-21.084 8.431-8.612 21.505-8.612h134.608q-38.239-59.043-95.803-95.196-57.564-36.152-134.305-36.152-107.544 0-181.946 74.152Q223.435-587.543 223.435-480q0 107.543 74.402 181.696 74.402 74.152 181.946 74.152 72.587 0 135.402-37.815Q678-299.783 710.239-364.63q6.344-12.234 18.694-17.574 12.35-5.339 24.962-.122 12.996 5.478 17.714 17.424 4.717 11.946-1 24.402-39.696 83.739-118.152 132.859Q574-158.522 479.783-158.522Z"/></svg>