<svg xmlns="http://www.w3.org/2000/svg" height="24" viewBox="0 -960 960 960" width="24" fill="currentColor"><path d="M207.87-116.869q-35.721 0-60.861-25.14t-25.14-60.861v-549.26q0-35.721 25.14-60.861t60.861-25.14h232.043q17.652 0 30.326 12.674t12.674 30.327q0 17.652-12.674 30.326t-30.326 12.674H207.87v549.26h232.043q17.652 0 30.326 12.674t12.674 30.326q0 17.653-12.674 30.327-12.674 12.674-30.326 12.674H207.87ZM674.065-434.5H404.087q-17.652 0-30.326-12.674T361.087-477.5q0-17.652 12.674-30.326t30.326-12.674h269.978l-68.628-68.628q-12.546-12.546-12.546-29.937 0-17.392 12.674-30.076 12.674-12.924 30.207-13.055 17.532-.13 30.739 13.077l141.26 141.26q12.968 13.207 12.968 30.45t-12.935 30.235L666.052-305.422q-13.009 13.248-30.28 12.868-17.272-.381-30.207-13.055-12.674-12.934-12.543-30.456.13-17.522 12.739-30.131l68.304-68.304Z"/></svg>