<svg xmlns="http://www.w3.org/2000/svg" height="24" viewBox="0 -960 960 960" width="24" fill="currentColor"><path d="M203.5-805h553q17.652 0 30.326 12.674T799.5-762q0 17.652-12.674 30.326T756.5-719h-553q-17.652 0-30.326-12.674T160.5-762q0-17.652 12.674-30.326T203.5-805Zm1 649q-17.652 0-30.326-12.674T161.5-199v-194h-8.326q-20.392 0-32.837-15.174-12.446-15.174-8.468-35.326l41.435-198.435q2.978-14.913 14.913-24.489T195.565-676h568.87q15.413 0 27.348 9.576 11.935 9.576 14.913 24.489L848.131-443.5q3.978 20.152-8.468 35.326Q827.218-393 806.826-393H798.5v194q0 17.652-12.674 30.326T755.5-156q-17.652 0-30.326-12.674T712.5-199v-194h-150v194q0 17.652-12.674 30.326T519.5-156h-315Zm43-86h229v-151h-229v151Z"/></svg>