<svg xmlns="http://www.w3.org/2000/svg" height="24" viewBox="0 -960 960 960" width="24" fill="currentColor"><path d="M164.87-236.282q-17.653 0-30.327-12.674-12.674-12.674-12.674-30.326 0-17.653 12.674-30.327 12.674-12.674 30.327-12.674h630.26q17.653 0 30.327 12.674 12.674 12.674 12.674 30.327 0 17.652-12.674 30.326t-30.327 12.674H164.87Zm0-201.218q-17.653 0-30.327-12.674-12.674-12.674-12.674-30.326t12.674-30.326Q147.217-523.5 164.87-523.5h630.26q17.653 0 30.327 12.674 12.674 12.674 12.674 30.326t-12.674 30.326Q812.783-437.5 795.13-437.5H164.87Zm0-201.217q-17.653 0-30.327-12.674-12.674-12.674-12.674-30.327 0-17.652 12.674-30.326t30.327-12.674h630.26q17.653 0 30.327 12.674 12.674 12.674 12.674 30.326 0 17.653-12.674 30.327-12.674 12.674-30.327 12.674H164.87Z"/></svg>