<svg xmlns="http://www.w3.org/2000/svg" height="24" viewBox="0 -960 960 960" width="24" fill="currentColor"><path d="M206.87-120.869q-35.721 0-60.861-25.14t-25.14-60.861v-546.26q0-35.721 25.14-60.861t60.861-25.14h435.934q17.295 0 33.051 6.576 15.756 6.577 27.841 18.772l110.087 110.087q12.195 12.085 18.772 27.841 6.576 15.756 6.576 33.051v435.934q0 35.721-25.14 60.861t-60.861 25.14H206.87ZM480-249.87q47.5 0 80.75-33.25T594-363.87q0-47.5-33.25-80.75T480-477.87q-47.5 0-80.75 33.25T366-363.87q0 47.5 33.25 80.75T480-249.87ZM290.87-558.13h265q17.652 0 30.326-12.674t12.674-30.326v-68q0-17.652-12.674-30.326T555.87-712.13h-265q-17.652 0-30.326 12.674T247.87-669.13v68q0 17.652 12.674 30.326t30.326 12.674Z"/></svg>