<svg xmlns="http://www.w3.org/2000/svg" height="24" viewBox="0 -960 960 960" width="24" fill="currentColor"><path d="M323-287.935q15.5 0 26.5-11t11-26.5q0-15.5-11-26.5t-26.5-11q-15.5 0-26.5 11t-11 26.5q0 15.5 11 26.5t26.5 11Zm0-154.565q15.5 0 26.5-11t11-26.5q0-15.5-11-26.5t-26.5-11q-15.5 0-26.5 11t-11 26.5q0 15.5 11 26.5t26.5 11Zm0-155.565q15.5 0 26.5-11t11-26.5q0-15.5-11-26.5t-26.5-11q-15.5 0-26.5 11t-11 26.5q0 15.5 11 26.5t26.5 11Zm155.5 310.63h159q15.5 0 26.5-11t11-26.5q0-15.5-11-26.5t-26.5-11h-159q-15.5 0-26.5 11t-11 26.5q0 15.5 11 26.5t26.5 11Zm0-155.565h159q15.5 0 26.5-11t11-26.5q0-15.5-11-26.5t-26.5-11h-159q-15.5 0-26.5 11t-11 26.5q0 15.5 11 26.5t26.5 11Zm0-154.565h159q15.5 0 26.5-11t11-26.5q0-15.5-11-26.5t-26.5-11h-159q-15.5 0-26.5 11t-11 26.5q0 15.5 11 26.5t26.5 11ZM206.87-120.869q-35.783 0-60.892-25.109t-25.109-60.892v-546.26q0-35.783 25.109-60.892t60.892-25.109h546.26q35.783 0 60.892 25.109t25.109 60.892v546.26q0 35.783-25.109 60.892t-60.892 25.109H206.87Z"/></svg>