<svg width="24" height="24" viewBox="0 0 24 24" fill="none" xmlns="http://www.w3.org/2000/svg">
<path d="M14.5575 10.6419C14.2211 10.6419 13.9355 10.5246 13.7006 10.29C13.4657 10.0553 13.3482 9.77064 13.3482 9.43594C13.3482 9.10124 13.4657 8.81657 13.7006 8.58194C13.9355 8.3473 14.2211 8.22998 14.5575 8.22998C14.8939 8.22998 15.1795 8.3473 15.4144 8.58194C15.6494 8.81657 15.7668 9.10124 15.7668 9.43594C15.7668 9.77064 15.6494 10.0553 15.4144 10.29C15.1795 10.5246 14.8939 10.6419 14.5575 10.6419Z" fill="currentColor"/>
<path fill-rule="evenodd" clip-rule="evenodd" d="M12 24C18.6274 24 24 18.6274 24 12C24 5.37258 18.6274 0 12 0C5.37258 0 0 5.37258 0 12C0 18.6274 5.37258 24 12 24ZM6.61834 11.17L8.09391 11.801C8.40814 11.0023 8.74156 10.314 9.09416 9.73613C9.44676 9.15822 9.90645 8.52912 10.4732 7.84883L9.68602 7.68901C9.45529 7.64662 9.22721 7.65722 9.0018 7.7208C8.7764 7.78437 8.57755 7.90222 8.40525 8.07432L6.41554 10.0617C6.24579 10.2312 6.1808 10.4332 6.22056 10.6676C6.26033 10.902 6.39292 11.0695 6.61834 11.17ZM18.0331 5.567C17.9468 5.5245 17.8573 5.50325 17.7645 5.50325C16.7469 5.47059 15.7023 5.68404 14.6306 6.14358C13.5588 6.60314 12.6067 7.24868 11.7742 8.08022C11.1958 8.65791 10.7274 9.21839 10.369 9.76167C10.0106 10.305 9.66945 10.9618 9.34549 11.7322C9.27939 11.8911 9.25354 12.046 9.26792 12.1969C9.2823 12.3478 9.33992 12.4736 9.44079 12.5744L11.4093 14.5485C11.5102 14.6493 11.6368 14.7062 11.7891 14.7193C11.9415 14.7324 12.0959 14.7059 12.2525 14.6399C13.0421 14.3034 13.7069 13.9581 14.2469 13.604C14.7869 13.25 15.3435 12.7867 15.9167 12.2141C16.7493 11.3825 17.3956 10.4322 17.8557 9.36298C18.3157 8.29378 18.5294 7.251 18.4967 6.23462C18.4967 6.14196 18.4755 6.05255 18.4329 5.96639C18.3904 5.88022 18.3347 5.80274 18.2658 5.73395C18.1969 5.66516 18.1193 5.60951 18.0331 5.567ZM14.257 14.8929C13.6743 15.2438 12.9832 15.5762 12.1836 15.89L12.8195 17.3597C12.9201 17.5848 13.0871 17.7193 13.3204 17.7631C13.5537 17.8069 13.7552 17.744 13.9249 17.5744L15.9146 15.587C16.087 15.415 16.2076 15.2156 16.2766 14.9891C16.3456 14.7626 16.3562 14.5341 16.3084 14.3036L16.1526 13.5173C15.4715 14.0834 14.8396 14.5419 14.257 14.8929ZM8.1492 13.855C7.6017 13.8564 7.13118 14.0527 6.73764 14.4439C6.44521 14.7347 6.20061 15.2057 6.00384 15.857C5.80708 16.5083 5.63914 17.3893 5.5 18.5C6.6121 18.3615 7.49446 18.1937 8.14707 17.9965C8.79968 17.7993 9.27194 17.555 9.56384 17.2638C9.95627 16.8703 10.1525 16.4015 10.1525 15.8575C10.1525 15.3135 9.95682 14.8421 9.56547 14.4432C9.16878 14.0497 8.69669 13.8537 8.1492 13.855Z" fill="currentColor"/>
</svg>
