<svg width="100" height="24" viewBox="0 0 100 24" fill="none" xmlns="http://www.w3.org/2000/svg">
<mask id="path-1-outside-1_37_2841" maskUnits="userSpaceOnUse" x="-0.700012" y="3.29999" width="101" height="21" fill="currentColor">
<rect fill="white" x="-0.700012" y="3.29999" width="101" height="21"/>
<path d="M6.65057 5.25059C7.0998 5.25059 7.54904 5.28939 7.99828 5.36699C8.46113 5.43165 8.87633 5.54159 9.24389 5.69679C9.61145 5.83905 9.91094 6.02012 10.1424 6.23999C10.3874 6.44692 10.5099 6.69265 10.5099 6.97719C10.5099 7.27465 10.4282 7.50099 10.2649 7.65619C10.1015 7.81139 9.89733 7.88899 9.65229 7.88899C9.42086 7.88899 9.21666 7.85665 9.03969 7.79199C8.86272 7.71439 8.65852 7.63032 8.4271 7.53979C8.20928 7.44925 7.94383 7.37165 7.63072 7.30699C7.31762 7.22939 6.90241 7.19059 6.38511 7.19059C5.86781 7.19059 5.37092 7.31992 4.89446 7.57859C4.43161 7.82432 4.02321 8.17352 3.66927 8.62619C3.32893 9.06592 3.05667 9.58972 2.85247 10.1976C2.64827 10.8055 2.54617 11.4651 2.54617 12.1764C2.54617 13.0559 2.66189 13.8125 2.89331 14.4462C3.13835 15.0799 3.45145 15.6037 3.83263 16.0176C4.2138 16.4185 4.64261 16.7225 5.11908 16.9294C5.60915 17.1234 6.09923 17.2204 6.58931 17.2204C7.17468 17.2204 7.66475 17.1622 8.05954 17.0458C8.45432 16.9294 8.78785 16.8001 9.06011 16.6578C9.34599 16.5155 9.59103 16.3862 9.79523 16.2698C9.99943 16.1534 10.1968 16.0952 10.3874 16.0952C10.6188 16.0952 10.8026 16.1599 10.9387 16.2892C11.0749 16.4056 11.1429 16.619 11.1429 16.9294C11.1429 17.1881 11.034 17.4532 10.8162 17.7248C10.612 17.9835 10.3057 18.2227 9.89733 18.4426C9.50254 18.6495 9.02608 18.8241 8.46794 18.9664C7.90979 19.0957 7.28358 19.1604 6.58931 19.1604C5.82697 19.1604 5.06462 19.0181 4.30228 18.7336C3.55355 18.4491 2.8797 18.0287 2.28072 17.4726C1.69535 16.9035 1.21888 16.1987 0.851324 15.358C0.483767 14.5044 0.299988 13.515 0.299988 12.3898C0.299988 11.2646 0.463347 10.2623 0.790065 9.38279C1.1304 8.50332 1.58644 7.75965 2.1582 7.15179C2.74357 6.53099 3.41742 6.05892 4.17976 5.73559C4.95572 5.41225 5.77932 5.25059 6.65057 5.25059Z"/>
<path d="M13.0549 17.8024C13.0005 17.3497 12.9664 16.8001 12.9528 16.1534C12.9392 15.5067 12.9324 14.7243 12.9324 13.806C12.9324 12.9007 12.9324 12.1699 12.9324 11.6138C12.946 11.0577 12.9868 10.5662 13.0549 10.1394C13.123 9.60912 13.2251 9.26639 13.3612 9.11119C13.511 8.95599 13.7015 8.87839 13.933 8.87839C14.0963 8.87839 14.2393 8.89132 14.3618 8.91719C14.4979 8.94305 14.6136 9.00125 14.7089 9.09179C14.8178 9.16939 14.8995 9.28579 14.954 9.44099C15.0084 9.59619 15.0356 9.80959 15.0356 10.0812C15.0356 10.1329 15.0424 10.1847 15.0561 10.2364C15.0561 10.2881 15.0561 10.3463 15.0561 10.411C15.0697 10.4627 15.0765 10.5274 15.0765 10.605C15.444 10.1653 15.8592 9.79019 16.3221 9.47979C16.7985 9.16939 17.3363 9.01419 17.9353 9.01419C18.7384 9.01419 19.14 9.33105 19.14 9.96479C19.14 10.1976 19.0856 10.3916 18.9767 10.5468C18.8814 10.702 18.7384 10.8313 18.5479 10.9348C18.3709 11.0253 18.1599 11.0965 17.9148 11.1482C17.6834 11.1999 17.4248 11.2517 17.1389 11.3034C16.7033 11.381 16.2949 11.5297 15.9137 11.7496C15.5325 11.9565 15.2739 12.2217 15.1377 12.545C15.1377 12.7907 15.1377 12.9718 15.1377 13.0882C15.1513 13.2046 15.1582 13.3016 15.1582 13.3792C15.1718 13.4568 15.1786 13.5409 15.1786 13.6314C15.1786 13.7219 15.1786 13.8642 15.1786 14.0582C15.1786 14.7178 15.165 15.3386 15.1377 15.9206C15.1105 16.4897 15.0833 17.1105 15.0561 17.783C15.0424 18.0934 15.0016 18.3327 14.9335 18.5008C14.8791 18.6689 14.8042 18.7983 14.7089 18.8888C14.6272 18.9793 14.5319 19.0311 14.423 19.044C14.3141 19.0699 14.2052 19.0828 14.0963 19.0828C13.7151 19.0828 13.4565 19.0052 13.3204 18.85C13.1978 18.6819 13.1094 18.3327 13.0549 17.8024Z"/>
<path d="M24.1061 22.536C23.9292 22.8335 23.759 23.0533 23.5956 23.1956C23.4459 23.3379 23.2689 23.409 23.0647 23.409C22.8741 23.409 22.6835 23.3508 22.493 23.2344C22.3024 23.118 22.2071 22.9563 22.2071 22.7494C22.2071 22.5554 22.2751 22.2773 22.4113 21.9152C22.561 21.5531 22.738 21.1586 22.9422 20.7318C23.16 20.305 23.3846 19.8653 23.616 19.4126C23.8475 18.9599 24.0585 18.5461 24.2491 18.171L24.392 17.88C23.9836 17.1169 23.5616 16.3021 23.126 15.4356C22.704 14.5691 22.316 13.7478 21.962 12.9718C21.6081 12.1958 21.3154 11.5233 21.084 10.9542C20.8662 10.3722 20.7573 9.99065 20.7573 9.80959C20.7573 9.64145 20.8253 9.49919 20.9615 9.38279C21.1112 9.25345 21.295 9.18879 21.5128 9.18879C21.7034 9.18879 21.8872 9.22759 22.0641 9.30519C22.2411 9.36985 22.4045 9.52505 22.5542 9.77079C22.772 10.1588 22.9966 10.605 23.2281 11.1094C23.4731 11.6009 23.7113 12.1182 23.9428 12.6614C24.1878 13.2046 24.4328 13.7543 24.6779 14.3104C24.9365 14.8665 25.1952 15.4033 25.4538 15.9206C25.7533 15.3903 26.0732 14.8342 26.4136 14.2522C26.7539 13.6702 27.0806 13.1076 27.3937 12.5644C27.7204 12.0212 28.0199 11.5233 28.2922 11.0706C28.5645 10.605 28.7959 10.217 28.9865 9.90659C29.1771 9.60912 29.3676 9.39572 29.5582 9.26639C29.7488 9.13705 29.9462 9.07239 30.1504 9.07239C30.2865 9.07239 30.4227 9.13059 30.5588 9.24699C30.6949 9.35045 30.763 9.49272 30.763 9.67379C30.763 9.94539 30.6337 10.3851 30.375 10.993C30.13 11.5879 29.8101 12.2799 29.4153 13.0688C29.0205 13.8577 28.5713 14.7049 28.0676 15.6102C27.5775 16.5026 27.0874 17.3821 26.5973 18.2486C26.1073 19.1022 25.6376 19.9041 25.1884 20.6542C24.7528 21.4043 24.392 22.0316 24.1061 22.536Z"/>
<path d="M34.5116 21.7794C34.5116 22.0251 34.5048 22.2579 34.4912 22.4778C34.4776 22.7106 34.43 22.9175 34.3483 23.0986C34.2802 23.2797 34.1713 23.4219 34.0216 23.5254C33.8854 23.6418 33.688 23.7 33.4294 23.7C33.1299 23.7 32.8781 23.5965 32.6739 23.3896C32.4833 23.1956 32.3744 22.8464 32.3471 22.342C32.3335 22.0187 32.3131 21.6242 32.2859 21.1586C32.2586 20.693 32.2314 20.2015 32.2042 19.6842C32.1906 19.1669 32.1702 18.6495 32.1429 18.1322C32.1293 17.6149 32.1225 17.1363 32.1225 16.6966C32.1225 15.1834 32.2314 13.9353 32.4492 12.9524C32.6807 11.9695 33.021 11.187 33.4702 10.605C33.9195 10.023 34.4708 9.61559 35.1242 9.38279C35.7913 9.14999 36.5604 9.03359 37.4317 9.03359C38.126 9.03359 38.7794 9.13705 39.392 9.34399C40.0046 9.53799 40.5355 9.84839 40.9847 10.2752C41.4476 10.6891 41.8151 11.2323 42.0874 11.9048C42.3597 12.5644 42.4958 13.3598 42.4958 14.291C42.4958 15.067 42.3529 15.7525 42.067 16.3474C41.7947 16.9423 41.4136 17.4467 40.9235 17.8606C40.4334 18.2615 39.8548 18.5719 39.1878 18.7918C38.5344 18.9987 37.8333 19.1022 37.0845 19.1022C36.4447 19.1022 35.8662 18.9793 35.3489 18.7336C34.8452 18.4749 34.4844 18.1969 34.2666 17.8994C34.3347 18.6237 34.3891 19.2962 34.43 19.917C34.4844 20.5378 34.5116 21.1586 34.5116 21.7794ZM37.3296 10.9736C36.8531 10.9736 36.4379 11.0512 36.084 11.2064C35.7436 11.3616 35.4646 11.575 35.2468 11.8466C35.0289 12.1182 34.8656 12.4415 34.7567 12.8166C34.6614 13.1917 34.6137 13.5991 34.6137 14.0388C34.6137 14.4656 34.6546 14.873 34.7363 15.261C34.8316 15.6361 34.9813 15.9659 35.1855 16.2504C35.3897 16.5349 35.662 16.7613 36.0023 16.9294C36.3426 17.0975 36.7578 17.1816 37.2479 17.1816C37.6291 17.1816 37.9966 17.1363 38.3506 17.0458C38.7045 16.9423 39.0176 16.7742 39.2899 16.5414C39.5758 16.3086 39.8004 15.9982 39.9637 15.6102C40.1407 15.2222 40.2292 14.7372 40.2292 14.1552C40.2292 13.5603 40.1407 13.0623 39.9637 12.6614C39.8004 12.2475 39.5758 11.9177 39.2899 11.672C39.0176 11.4133 38.7045 11.2323 38.3506 11.1288C38.0102 11.0253 37.6699 10.9736 37.3296 10.9736Z"/>
<path d="M45.8672 17.7248C45.8263 16.91 45.7991 15.9465 45.7855 14.8342C45.7855 13.709 45.7855 12.4351 45.7855 11.0124C45.6493 11.0253 45.486 11.0318 45.2954 11.0318C45.1184 11.0318 44.9755 11.0318 44.8666 11.0318C44.6215 11.0318 44.3969 11.0253 44.1927 11.0124C44.0021 10.9995 43.832 10.9607 43.6822 10.896C43.5325 10.8313 43.4168 10.7408 43.3351 10.6244C43.2534 10.4951 43.2126 10.3205 43.2126 10.1006C43.2126 9.47979 43.7027 9.16939 44.6828 9.16939C44.8326 9.16939 45.0163 9.16939 45.2341 9.16939C45.452 9.16939 45.6357 9.18232 45.7855 9.20819C45.7855 8.52272 45.7991 7.97305 45.8263 7.55919C45.8535 7.14532 45.9012 6.82845 45.9693 6.60859C46.0509 6.37579 46.153 6.22705 46.2756 6.16239C46.4117 6.08479 46.5819 6.04599 46.7861 6.04599C47.0039 6.04599 47.1808 6.11712 47.317 6.25939C47.4531 6.40165 47.5552 6.58272 47.6233 6.80259C47.7049 7.02245 47.7526 7.26819 47.7662 7.53979C47.7934 7.81139 47.807 8.07652 47.807 8.33519C47.807 8.51625 47.8002 8.68439 47.7866 8.83959C47.7866 8.98185 47.7866 9.11119 47.7866 9.22759C47.9772 9.17585 48.1746 9.14999 48.3788 9.14999C48.583 9.13705 48.7804 9.13059 48.971 9.13059C49.4747 9.13059 49.8626 9.20819 50.1349 9.36339C50.4072 9.50565 50.5433 9.74492 50.5433 10.0812C50.5433 10.2881 50.4957 10.4563 50.4004 10.5856C50.3051 10.702 50.1758 10.7925 50.0124 10.8572C49.8626 10.9219 49.6789 10.9671 49.4611 10.993C49.2569 11.0059 49.0322 11.0124 48.7872 11.0124C48.6511 11.0124 48.4945 11.0124 48.3175 11.0124C48.1406 11.0124 47.9772 10.9995 47.8275 10.9736C47.8275 11.6591 47.8275 12.2863 47.8275 12.8554C47.8275 13.4245 47.8207 13.9741 47.807 14.5044C47.7934 15.0217 47.7798 15.5391 47.7662 16.0564C47.7526 16.5737 47.7322 17.1234 47.7049 17.7054C47.6913 18.0158 47.6573 18.2551 47.6028 18.4232C47.562 18.5913 47.5007 18.7207 47.4191 18.8112C47.3374 18.9017 47.2421 18.9599 47.1332 18.9858C47.0379 18.9987 46.9222 19.0052 46.7861 19.0052C46.541 19.0052 46.33 18.9276 46.153 18.7724C45.9897 18.6043 45.8944 18.2551 45.8672 17.7248Z"/>
<path d="M56.7447 9.14999C57.5207 9.14999 58.215 9.26639 58.8276 9.49919C59.4402 9.71905 59.9575 10.0359 60.3795 10.4498C60.8151 10.8637 61.1486 11.3681 61.38 11.963C61.6115 12.5579 61.7272 13.224 61.7272 13.9612C61.7272 14.776 61.591 15.5067 61.3188 16.1534C61.0601 16.8001 60.6926 17.3497 60.2161 17.8024C59.7533 18.2551 59.1951 18.6043 58.5417 18.85C57.9019 19.0957 57.2008 19.2186 56.4384 19.2186C55.608 19.2186 54.8729 19.0828 54.2331 18.8112C53.6069 18.5396 53.076 18.171 52.6403 17.7054C52.2183 17.2398 51.8984 16.7031 51.6806 16.0952C51.4628 15.4873 51.3539 14.8471 51.3539 14.1746C51.3539 13.4374 51.4764 12.7649 51.7214 12.157C51.9801 11.5362 52.3408 11.0059 52.8037 10.5662C53.2802 10.1135 53.8519 9.76432 54.519 9.51859C55.186 9.27285 55.9279 9.14999 56.7447 9.14999ZM56.5201 17.4338C57.0783 17.4338 57.5547 17.3433 57.9495 17.1622C58.3443 16.9682 58.6642 16.716 58.9092 16.4056C59.1679 16.0952 59.3517 15.746 59.4606 15.358C59.5831 14.9571 59.6444 14.5432 59.6444 14.1164C59.6444 13.6767 59.5831 13.2693 59.4606 12.8942C59.3517 12.5062 59.1747 12.1699 58.9297 11.8854C58.6982 11.6009 58.3919 11.381 58.0108 11.2258C57.6432 11.0577 57.2008 10.9736 56.6835 10.9736C56.1526 10.9736 55.6897 11.0577 55.2949 11.2258C54.9001 11.3939 54.5666 11.6267 54.2943 11.9242C54.0357 12.2087 53.8383 12.5515 53.7022 12.9524C53.566 13.3533 53.498 13.7866 53.498 14.2522C53.498 15.1963 53.7498 15.9659 54.2535 16.5608C54.7708 17.1428 55.5263 17.4338 56.5201 17.4338Z"/>
<path d="M63.6355 17.783C63.6082 17.3174 63.5878 16.8324 63.5742 16.328C63.5742 15.8236 63.5674 15.2804 63.5538 14.6984C63.5402 14.1164 63.5334 13.4891 63.5334 12.8166C63.5334 12.1311 63.5334 11.3681 63.5334 10.5274C63.5334 9.60912 63.5402 8.82665 63.5538 8.17999C63.5674 7.52039 63.6014 6.98365 63.6559 6.56979C63.724 6.15592 63.8261 5.85199 63.9622 5.65799C64.0983 5.46399 64.2889 5.36699 64.534 5.36699C64.7654 5.36699 64.9696 5.43812 65.1465 5.58039C65.3235 5.72265 65.4256 6.05245 65.4528 6.56979C65.4801 7.03539 65.5005 7.44925 65.5141 7.81139C65.5277 8.17352 65.5413 8.53565 65.5549 8.89779C65.5686 9.24699 65.5754 9.61559 65.5754 10.0036C65.5754 10.3787 65.5754 10.8055 65.5754 11.284V12.2928L69.9452 7.53979C70.517 6.91899 70.9594 6.51159 71.2725 6.31759C71.5856 6.11065 71.8579 6.00719 72.0893 6.00719C72.3616 6.00719 72.559 6.07185 72.6815 6.20119C72.8176 6.33052 72.8857 6.49219 72.8857 6.68619C72.8857 6.76379 72.8721 6.84139 72.8448 6.91899C72.8176 6.99659 72.7564 7.10652 72.6611 7.24879C72.5794 7.37812 72.4501 7.54625 72.2731 7.75319C72.0961 7.94719 71.8579 8.19939 71.5584 8.50979L68.72 11.4392L73.192 17.492C73.3009 17.6343 73.3826 17.783 73.437 17.9382C73.5051 18.0934 73.5391 18.2421 73.5391 18.3844C73.5391 18.6301 73.4642 18.8306 73.3145 18.9858C73.1784 19.1539 72.9333 19.238 72.5794 19.238C72.2935 19.238 72.0348 19.1604 71.8034 19.0052C71.5856 18.8629 71.3814 18.6495 71.1908 18.365L67.3111 12.9136L65.5549 14.7372C65.5413 15.2287 65.5277 15.7201 65.5141 16.2116C65.5005 16.7031 65.4801 17.2204 65.4528 17.7636C65.4392 18.074 65.4052 18.3133 65.3507 18.4814C65.3099 18.6495 65.2486 18.7789 65.167 18.8694C65.0853 18.9599 64.99 19.0117 64.8811 19.0246C64.7858 19.0505 64.6701 19.0634 64.534 19.0634C64.2889 19.0634 64.0847 18.9858 63.9214 18.8306C63.758 18.6625 63.6627 18.3133 63.6355 17.783Z"/>
<path d="M75.3424 17.783C75.3152 17.3045 75.288 16.7613 75.2608 16.1534C75.2472 15.5326 75.2403 14.8536 75.2403 14.1164C75.2403 13.1981 75.2472 12.4157 75.2608 11.769C75.2744 11.1094 75.3084 10.5727 75.3629 10.1588C75.4309 9.73199 75.533 9.42159 75.6692 9.22759C75.8053 9.02065 75.9959 8.91719 76.2409 8.91719C76.4723 8.91719 76.6765 8.99479 76.8535 9.14999C77.0305 9.30519 77.1326 9.64145 77.1598 10.1588C77.2415 11.5168 77.2823 12.8295 77.2823 14.097C77.2823 14.7437 77.2687 15.3515 77.2415 15.9206C77.2143 16.4767 77.187 17.0911 77.1598 17.7636C77.1462 18.074 77.1122 18.3133 77.0577 18.4814C77.0169 18.6495 76.9556 18.7789 76.8739 18.8694C76.7922 18.9599 76.697 19.0117 76.5881 19.0246C76.4928 19.0505 76.377 19.0634 76.2409 19.0634C75.9959 19.0634 75.7917 18.9858 75.6283 18.8306C75.465 18.6625 75.3697 18.3133 75.3424 17.783ZM76.2613 5.40579C76.5744 5.40579 76.8603 5.52219 77.119 5.75499C77.3912 5.98779 77.5274 6.26585 77.5274 6.58919C77.5274 6.89959 77.3912 7.17119 77.119 7.40399C76.8467 7.62385 76.5404 7.73379 76.2001 7.73379C75.9142 7.73379 75.6419 7.62385 75.3833 7.40399C75.1382 7.17119 75.0157 6.88665 75.0157 6.55039C75.0157 6.23999 75.1382 5.97485 75.3833 5.75499C75.6419 5.52219 75.9346 5.40579 76.2613 5.40579Z"/>
<path d="M88.321 18.947C88.0488 18.947 87.8173 18.8435 87.6267 18.6366C87.4498 18.4297 87.3273 18.1904 87.2592 17.9188C87.0958 18.0611 86.9052 18.2033 86.6874 18.3456C86.4832 18.4879 86.245 18.6237 85.9727 18.753C85.7005 18.8694 85.401 18.9664 85.0743 19.044C84.7475 19.1216 84.3936 19.1604 84.0124 19.1604C83.5496 19.1604 83.0323 19.0893 82.4605 18.947C81.9024 18.7918 81.3715 18.5331 80.8678 18.171C80.3777 17.7959 79.9625 17.2915 79.6222 16.6578C79.2954 16.0241 79.1321 15.2287 79.1321 14.2716C79.1321 13.4568 79.2614 12.7325 79.5201 12.0988C79.7787 11.4651 80.1395 10.9348 80.6023 10.508C81.0788 10.0683 81.6369 9.73845 82.2767 9.51859C82.9302 9.28579 83.6381 9.16939 84.4004 9.16939C85.0538 9.16939 85.5711 9.24052 85.9523 9.38279C86.3335 9.52505 86.633 9.69319 86.8508 9.88719C86.8508 9.53799 86.8508 9.14352 86.8508 8.70379C86.8508 8.25112 86.8508 7.81785 86.8508 7.40399C86.8644 6.97719 86.8712 6.58919 86.8712 6.23999C86.8848 5.89079 86.8984 5.62565 86.912 5.44459C86.9393 5.00485 87.021 4.70739 87.1571 4.55219C87.2932 4.38405 87.5315 4.29999 87.8718 4.29999C88.2257 4.29999 88.464 4.38405 88.5865 4.55219C88.7226 4.70739 88.8043 4.98545 88.8315 5.38639C88.8451 5.55452 88.8519 5.78085 88.8519 6.06539C88.8655 6.34992 88.8724 6.66032 88.8724 6.99659C88.8724 7.33285 88.8724 7.67559 88.8724 8.02479C88.886 8.36105 88.8928 8.67145 88.8928 8.95599C88.8928 9.22759 88.8928 9.45392 88.8928 9.63499C88.8928 9.81605 88.8928 9.90659 88.8928 9.90659C88.8928 11.2258 88.8792 12.4415 88.8519 13.5538C88.8383 14.6661 88.8315 15.552 88.8315 16.2116C88.8587 16.3539 88.9132 16.4897 88.9949 16.619C89.0902 16.7483 89.1855 16.8777 89.2808 17.007C89.3897 17.1363 89.485 17.2721 89.5666 17.4144C89.6483 17.5567 89.6892 17.7054 89.6892 17.8606C89.6892 18.0417 89.6415 18.2033 89.5462 18.3456C89.4509 18.4749 89.3284 18.5849 89.1787 18.6754C89.0425 18.7659 88.8928 18.8371 88.7294 18.8888C88.5797 18.9276 88.4435 18.947 88.321 18.947ZM84.38 17.2398C85.224 17.2398 85.8706 17.0005 86.3199 16.522C86.7691 16.0435 86.9937 15.2545 86.9937 14.1552C86.9937 12.0471 86.1157 10.993 84.3596 10.993C83.9512 10.993 83.5564 11.0512 83.1752 11.1676C82.794 11.284 82.4537 11.4651 82.1542 11.7108C81.8683 11.9565 81.6301 12.2669 81.4395 12.642C81.2626 13.0171 81.1741 13.4633 81.1741 13.9806C81.1741 14.4074 81.2353 14.8148 81.3578 15.2028C81.494 15.5908 81.6914 15.94 81.95 16.2504C82.2223 16.5479 82.5558 16.7871 82.9506 16.9682C83.359 17.1493 83.8355 17.2398 84.38 17.2398Z"/>
<path d="M95.7794 8.85899C96.0653 8.85899 96.426 8.88485 96.8616 8.93659C97.2973 8.97539 97.7125 9.05945 98.1072 9.18879C98.502 9.30519 98.8424 9.47332 99.1282 9.69319C99.4141 9.91305 99.5571 10.1911 99.5571 10.5274C99.5571 10.7214 99.4958 10.8895 99.3733 11.0318C99.2644 11.1741 99.0874 11.2452 98.8424 11.2452C98.6654 11.2452 98.4612 11.2193 98.2298 11.1676C98.012 11.1159 97.7669 11.0577 97.4946 10.993C97.236 10.9154 96.9501 10.8507 96.637 10.799C96.3375 10.7473 96.0176 10.7214 95.6773 10.7214C95.1055 10.7214 94.6359 10.8055 94.2683 10.9736C93.9144 11.1417 93.7374 11.4069 93.7374 11.769C93.7374 11.9759 93.7987 12.1505 93.9212 12.2928C94.0573 12.4351 94.2343 12.5644 94.4521 12.6808C94.6835 12.7843 94.949 12.8748 95.2485 12.9524C95.5616 13.03 95.8883 13.1076 96.2286 13.1852C96.6506 13.2887 97.0658 13.4051 97.4742 13.5344C97.8962 13.6637 98.2706 13.8448 98.5973 14.0776C98.924 14.2975 99.1895 14.582 99.3937 14.9312C99.5979 15.2675 99.7 15.6878 99.7 16.1922C99.7 17.1493 99.3188 17.9123 98.5565 18.4814C97.7941 19.0375 96.671 19.3156 95.1872 19.3156C94.8605 19.3156 94.4725 19.2897 94.0233 19.238C93.574 19.1992 93.152 19.1151 92.7572 18.9858C92.3625 18.8694 92.0221 18.7013 91.7362 18.4814C91.464 18.2486 91.3278 17.9447 91.3278 17.5696C91.3278 17.3109 91.3891 17.1169 91.5116 16.9876C91.6478 16.8453 91.8111 16.7742 92.0017 16.7742C92.1514 16.7742 92.308 16.8195 92.4714 16.91C92.6347 17.0005 92.8321 17.0975 93.0635 17.201C93.295 17.3045 93.574 17.4015 93.9007 17.492C94.2275 17.5825 94.6291 17.6278 95.1055 17.6278C95.2825 17.6278 95.5139 17.6213 95.7998 17.6084C96.0857 17.5825 96.3647 17.5243 96.637 17.4338C96.9229 17.3433 97.1611 17.2204 97.3517 17.0652C97.5559 16.8971 97.658 16.6643 97.658 16.3668C97.658 16.134 97.5899 15.94 97.4538 15.7848C97.3177 15.6167 97.1339 15.4744 96.9025 15.358C96.671 15.2416 96.3988 15.1446 96.0857 15.067C95.7862 14.9765 95.4663 14.8859 95.1259 14.7954C94.7312 14.6919 94.3296 14.5755 93.9212 14.4462C93.5264 14.3169 93.1656 14.1487 92.8389 13.9418C92.5122 13.7349 92.2467 13.4762 92.0425 13.1658C91.8383 12.8425 91.7362 12.448 91.7362 11.9824C91.7362 11.5427 91.8315 11.1353 92.0221 10.7602C92.2127 10.3722 92.485 10.0359 92.8389 9.75139C93.1929 9.46685 93.6149 9.24699 94.105 9.09179C94.6086 8.93659 95.1668 8.85899 95.7794 8.85899Z"/>
</mask>
<path d="M6.65057 5.25059C7.0998 5.25059 7.54904 5.28939 7.99828 5.36699C8.46113 5.43165 8.87633 5.54159 9.24389 5.69679C9.61145 5.83905 9.91094 6.02012 10.1424 6.23999C10.3874 6.44692 10.5099 6.69265 10.5099 6.97719C10.5099 7.27465 10.4282 7.50099 10.2649 7.65619C10.1015 7.81139 9.89733 7.88899 9.65229 7.88899C9.42086 7.88899 9.21666 7.85665 9.03969 7.79199C8.86272 7.71439 8.65852 7.63032 8.4271 7.53979C8.20928 7.44925 7.94383 7.37165 7.63072 7.30699C7.31762 7.22939 6.90241 7.19059 6.38511 7.19059C5.86781 7.19059 5.37092 7.31992 4.89446 7.57859C4.43161 7.82432 4.02321 8.17352 3.66927 8.62619C3.32893 9.06592 3.05667 9.58972 2.85247 10.1976C2.64827 10.8055 2.54617 11.4651 2.54617 12.1764C2.54617 13.0559 2.66189 13.8125 2.89331 14.4462C3.13835 15.0799 3.45145 15.6037 3.83263 16.0176C4.2138 16.4185 4.64261 16.7225 5.11908 16.9294C5.60915 17.1234 6.09923 17.2204 6.58931 17.2204C7.17468 17.2204 7.66475 17.1622 8.05954 17.0458C8.45432 16.9294 8.78785 16.8001 9.06011 16.6578C9.34599 16.5155 9.59103 16.3862 9.79523 16.2698C9.99943 16.1534 10.1968 16.0952 10.3874 16.0952C10.6188 16.0952 10.8026 16.1599 10.9387 16.2892C11.0749 16.4056 11.1429 16.619 11.1429 16.9294C11.1429 17.1881 11.034 17.4532 10.8162 17.7248C10.612 17.9835 10.3057 18.2227 9.89733 18.4426C9.50254 18.6495 9.02608 18.8241 8.46794 18.9664C7.90979 19.0957 7.28358 19.1604 6.58931 19.1604C5.82697 19.1604 5.06462 19.0181 4.30228 18.7336C3.55355 18.4491 2.8797 18.0287 2.28072 17.4726C1.69535 16.9035 1.21888 16.1987 0.851324 15.358C0.483767 14.5044 0.299988 13.515 0.299988 12.3898C0.299988 11.2646 0.463347 10.2623 0.790065 9.38279C1.1304 8.50332 1.58644 7.75965 2.1582 7.15179C2.74357 6.53099 3.41742 6.05892 4.17976 5.73559C4.95572 5.41225 5.77932 5.25059 6.65057 5.25059Z" fill="currentColor"/>
<path d="M13.0549 17.8024C13.0005 17.3497 12.9664 16.8001 12.9528 16.1534C12.9392 15.5067 12.9324 14.7243 12.9324 13.806C12.9324 12.9007 12.9324 12.1699 12.9324 11.6138C12.946 11.0577 12.9868 10.5662 13.0549 10.1394C13.123 9.60912 13.2251 9.26639 13.3612 9.11119C13.511 8.95599 13.7015 8.87839 13.933 8.87839C14.0963 8.87839 14.2393 8.89132 14.3618 8.91719C14.4979 8.94305 14.6136 9.00125 14.7089 9.09179C14.8178 9.16939 14.8995 9.28579 14.954 9.44099C15.0084 9.59619 15.0356 9.80959 15.0356 10.0812C15.0356 10.1329 15.0424 10.1847 15.0561 10.2364C15.0561 10.2881 15.0561 10.3463 15.0561 10.411C15.0697 10.4627 15.0765 10.5274 15.0765 10.605C15.444 10.1653 15.8592 9.79019 16.3221 9.47979C16.7985 9.16939 17.3363 9.01419 17.9353 9.01419C18.7384 9.01419 19.14 9.33105 19.14 9.96479C19.14 10.1976 19.0856 10.3916 18.9767 10.5468C18.8814 10.702 18.7384 10.8313 18.5479 10.9348C18.3709 11.0253 18.1599 11.0965 17.9148 11.1482C17.6834 11.1999 17.4248 11.2517 17.1389 11.3034C16.7033 11.381 16.2949 11.5297 15.9137 11.7496C15.5325 11.9565 15.2739 12.2217 15.1377 12.545C15.1377 12.7907 15.1377 12.9718 15.1377 13.0882C15.1513 13.2046 15.1582 13.3016 15.1582 13.3792C15.1718 13.4568 15.1786 13.5409 15.1786 13.6314C15.1786 13.7219 15.1786 13.8642 15.1786 14.0582C15.1786 14.7178 15.165 15.3386 15.1377 15.9206C15.1105 16.4897 15.0833 17.1105 15.0561 17.783C15.0424 18.0934 15.0016 18.3327 14.9335 18.5008C14.8791 18.6689 14.8042 18.7983 14.7089 18.8888C14.6272 18.9793 14.5319 19.0311 14.423 19.044C14.3141 19.0699 14.2052 19.0828 14.0963 19.0828C13.7151 19.0828 13.4565 19.0052 13.3204 18.85C13.1978 18.6819 13.1094 18.3327 13.0549 17.8024Z" fill="currentColor"/>
<path d="M24.1061 22.536C23.9292 22.8335 23.759 23.0533 23.5956 23.1956C23.4459 23.3379 23.2689 23.409 23.0647 23.409C22.8741 23.409 22.6835 23.3508 22.493 23.2344C22.3024 23.118 22.2071 22.9563 22.2071 22.7494C22.2071 22.5554 22.2751 22.2773 22.4113 21.9152C22.561 21.5531 22.738 21.1586 22.9422 20.7318C23.16 20.305 23.3846 19.8653 23.616 19.4126C23.8475 18.9599 24.0585 18.5461 24.2491 18.171L24.392 17.88C23.9836 17.1169 23.5616 16.3021 23.126 15.4356C22.704 14.5691 22.316 13.7478 21.962 12.9718C21.6081 12.1958 21.3154 11.5233 21.084 10.9542C20.8662 10.3722 20.7573 9.99065 20.7573 9.80959C20.7573 9.64145 20.8253 9.49919 20.9615 9.38279C21.1112 9.25345 21.295 9.18879 21.5128 9.18879C21.7034 9.18879 21.8872 9.22759 22.0641 9.30519C22.2411 9.36985 22.4045 9.52505 22.5542 9.77079C22.772 10.1588 22.9966 10.605 23.2281 11.1094C23.4731 11.6009 23.7113 12.1182 23.9428 12.6614C24.1878 13.2046 24.4328 13.7543 24.6779 14.3104C24.9365 14.8665 25.1952 15.4033 25.4538 15.9206C25.7533 15.3903 26.0732 14.8342 26.4136 14.2522C26.7539 13.6702 27.0806 13.1076 27.3937 12.5644C27.7204 12.0212 28.0199 11.5233 28.2922 11.0706C28.5645 10.605 28.7959 10.217 28.9865 9.90659C29.1771 9.60912 29.3676 9.39572 29.5582 9.26639C29.7488 9.13705 29.9462 9.07239 30.1504 9.07239C30.2865 9.07239 30.4227 9.13059 30.5588 9.24699C30.6949 9.35045 30.763 9.49272 30.763 9.67379C30.763 9.94539 30.6337 10.3851 30.375 10.993C30.13 11.5879 29.8101 12.2799 29.4153 13.0688C29.0205 13.8577 28.5713 14.7049 28.0676 15.6102C27.5775 16.5026 27.0874 17.3821 26.5973 18.2486C26.1073 19.1022 25.6376 19.9041 25.1884 20.6542C24.7528 21.4043 24.392 22.0316 24.1061 22.536Z" fill="currentColor"/>
<path d="M34.5116 21.7794C34.5116 22.0251 34.5048 22.2579 34.4912 22.4778C34.4776 22.7106 34.43 22.9175 34.3483 23.0986C34.2802 23.2797 34.1713 23.4219 34.0216 23.5254C33.8854 23.6418 33.688 23.7 33.4294 23.7C33.1299 23.7 32.8781 23.5965 32.6739 23.3896C32.4833 23.1956 32.3744 22.8464 32.3471 22.342C32.3335 22.0187 32.3131 21.6242 32.2859 21.1586C32.2586 20.693 32.2314 20.2015 32.2042 19.6842C32.1906 19.1669 32.1702 18.6495 32.1429 18.1322C32.1293 17.6149 32.1225 17.1363 32.1225 16.6966C32.1225 15.1834 32.2314 13.9353 32.4492 12.9524C32.6807 11.9695 33.021 11.187 33.4702 10.605C33.9195 10.023 34.4708 9.61559 35.1242 9.38279C35.7913 9.14999 36.5604 9.03359 37.4317 9.03359C38.126 9.03359 38.7794 9.13705 39.392 9.34399C40.0046 9.53799 40.5355 9.84839 40.9847 10.2752C41.4476 10.6891 41.8151 11.2323 42.0874 11.9048C42.3597 12.5644 42.4958 13.3598 42.4958 14.291C42.4958 15.067 42.3529 15.7525 42.067 16.3474C41.7947 16.9423 41.4136 17.4467 40.9235 17.8606C40.4334 18.2615 39.8548 18.5719 39.1878 18.7918C38.5344 18.9987 37.8333 19.1022 37.0845 19.1022C36.4447 19.1022 35.8662 18.9793 35.3489 18.7336C34.8452 18.4749 34.4844 18.1969 34.2666 17.8994C34.3347 18.6237 34.3891 19.2962 34.43 19.917C34.4844 20.5378 34.5116 21.1586 34.5116 21.7794ZM37.3296 10.9736C36.8531 10.9736 36.4379 11.0512 36.084 11.2064C35.7436 11.3616 35.4646 11.575 35.2468 11.8466C35.0289 12.1182 34.8656 12.4415 34.7567 12.8166C34.6614 13.1917 34.6137 13.5991 34.6137 14.0388C34.6137 14.4656 34.6546 14.873 34.7363 15.261C34.8316 15.6361 34.9813 15.9659 35.1855 16.2504C35.3897 16.5349 35.662 16.7613 36.0023 16.9294C36.3426 17.0975 36.7578 17.1816 37.2479 17.1816C37.6291 17.1816 37.9966 17.1363 38.3506 17.0458C38.7045 16.9423 39.0176 16.7742 39.2899 16.5414C39.5758 16.3086 39.8004 15.9982 39.9637 15.6102C40.1407 15.2222 40.2292 14.7372 40.2292 14.1552C40.2292 13.5603 40.1407 13.0623 39.9637 12.6614C39.8004 12.2475 39.5758 11.9177 39.2899 11.672C39.0176 11.4133 38.7045 11.2323 38.3506 11.1288C38.0102 11.0253 37.6699 10.9736 37.3296 10.9736Z" fill="currentColor"/>
<path d="M45.8672 17.7248C45.8263 16.91 45.7991 15.9465 45.7855 14.8342C45.7855 13.709 45.7855 12.4351 45.7855 11.0124C45.6493 11.0253 45.486 11.0318 45.2954 11.0318C45.1184 11.0318 44.9755 11.0318 44.8666 11.0318C44.6215 11.0318 44.3969 11.0253 44.1927 11.0124C44.0021 10.9995 43.832 10.9607 43.6822 10.896C43.5325 10.8313 43.4168 10.7408 43.3351 10.6244C43.2534 10.4951 43.2126 10.3205 43.2126 10.1006C43.2126 9.47979 43.7027 9.16939 44.6828 9.16939C44.8326 9.16939 45.0163 9.16939 45.2341 9.16939C45.452 9.16939 45.6357 9.18232 45.7855 9.20819C45.7855 8.52272 45.7991 7.97305 45.8263 7.55919C45.8535 7.14532 45.9012 6.82845 45.9693 6.60859C46.0509 6.37579 46.153 6.22705 46.2756 6.16239C46.4117 6.08479 46.5819 6.04599 46.7861 6.04599C47.0039 6.04599 47.1808 6.11712 47.317 6.25939C47.4531 6.40165 47.5552 6.58272 47.6233 6.80259C47.7049 7.02245 47.7526 7.26819 47.7662 7.53979C47.7934 7.81139 47.807 8.07652 47.807 8.33519C47.807 8.51625 47.8002 8.68439 47.7866 8.83959C47.7866 8.98185 47.7866 9.11119 47.7866 9.22759C47.9772 9.17585 48.1746 9.14999 48.3788 9.14999C48.583 9.13705 48.7804 9.13059 48.971 9.13059C49.4747 9.13059 49.8626 9.20819 50.1349 9.36339C50.4072 9.50565 50.5433 9.74492 50.5433 10.0812C50.5433 10.2881 50.4957 10.4563 50.4004 10.5856C50.3051 10.702 50.1758 10.7925 50.0124 10.8572C49.8626 10.9219 49.6789 10.9671 49.4611 10.993C49.2569 11.0059 49.0322 11.0124 48.7872 11.0124C48.6511 11.0124 48.4945 11.0124 48.3175 11.0124C48.1406 11.0124 47.9772 10.9995 47.8275 10.9736C47.8275 11.6591 47.8275 12.2863 47.8275 12.8554C47.8275 13.4245 47.8207 13.9741 47.807 14.5044C47.7934 15.0217 47.7798 15.5391 47.7662 16.0564C47.7526 16.5737 47.7322 17.1234 47.7049 17.7054C47.6913 18.0158 47.6573 18.2551 47.6028 18.4232C47.562 18.5913 47.5007 18.7207 47.4191 18.8112C47.3374 18.9017 47.2421 18.9599 47.1332 18.9858C47.0379 18.9987 46.9222 19.0052 46.7861 19.0052C46.541 19.0052 46.33 18.9276 46.153 18.7724C45.9897 18.6043 45.8944 18.2551 45.8672 17.7248Z" fill="currentColor"/>
<path d="M56.7447 9.14999C57.5207 9.14999 58.215 9.26639 58.8276 9.49919C59.4402 9.71905 59.9575 10.0359 60.3795 10.4498C60.8151 10.8637 61.1486 11.3681 61.38 11.963C61.6115 12.5579 61.7272 13.224 61.7272 13.9612C61.7272 14.776 61.591 15.5067 61.3188 16.1534C61.0601 16.8001 60.6926 17.3497 60.2161 17.8024C59.7533 18.2551 59.1951 18.6043 58.5417 18.85C57.9019 19.0957 57.2008 19.2186 56.4384 19.2186C55.608 19.2186 54.8729 19.0828 54.2331 18.8112C53.6069 18.5396 53.076 18.171 52.6403 17.7054C52.2183 17.2398 51.8984 16.7031 51.6806 16.0952C51.4628 15.4873 51.3539 14.8471 51.3539 14.1746C51.3539 13.4374 51.4764 12.7649 51.7214 12.157C51.9801 11.5362 52.3408 11.0059 52.8037 10.5662C53.2802 10.1135 53.8519 9.76432 54.519 9.51859C55.186 9.27285 55.9279 9.14999 56.7447 9.14999ZM56.5201 17.4338C57.0783 17.4338 57.5547 17.3433 57.9495 17.1622C58.3443 16.9682 58.6642 16.716 58.9092 16.4056C59.1679 16.0952 59.3517 15.746 59.4606 15.358C59.5831 14.9571 59.6444 14.5432 59.6444 14.1164C59.6444 13.6767 59.5831 13.2693 59.4606 12.8942C59.3517 12.5062 59.1747 12.1699 58.9297 11.8854C58.6982 11.6009 58.3919 11.381 58.0108 11.2258C57.6432 11.0577 57.2008 10.9736 56.6835 10.9736C56.1526 10.9736 55.6897 11.0577 55.2949 11.2258C54.9001 11.3939 54.5666 11.6267 54.2943 11.9242C54.0357 12.2087 53.8383 12.5515 53.7022 12.9524C53.566 13.3533 53.498 13.7866 53.498 14.2522C53.498 15.1963 53.7498 15.9659 54.2535 16.5608C54.7708 17.1428 55.5263 17.4338 56.5201 17.4338Z" fill="currentColor"/>
<path d="M63.6355 17.783C63.6082 17.3174 63.5878 16.8324 63.5742 16.328C63.5742 15.8236 63.5674 15.2804 63.5538 14.6984C63.5402 14.1164 63.5334 13.4891 63.5334 12.8166C63.5334 12.1311 63.5334 11.3681 63.5334 10.5274C63.5334 9.60912 63.5402 8.82665 63.5538 8.17999C63.5674 7.52039 63.6014 6.98365 63.6559 6.56979C63.724 6.15592 63.8261 5.85199 63.9622 5.65799C64.0983 5.46399 64.2889 5.36699 64.534 5.36699C64.7654 5.36699 64.9696 5.43812 65.1465 5.58039C65.3235 5.72265 65.4256 6.05245 65.4528 6.56979C65.4801 7.03539 65.5005 7.44925 65.5141 7.81139C65.5277 8.17352 65.5413 8.53565 65.5549 8.89779C65.5686 9.24699 65.5754 9.61559 65.5754 10.0036C65.5754 10.3787 65.5754 10.8055 65.5754 11.284V12.2928L69.9452 7.53979C70.517 6.91899 70.9594 6.51159 71.2725 6.31759C71.5856 6.11065 71.8579 6.00719 72.0893 6.00719C72.3616 6.00719 72.559 6.07185 72.6815 6.20119C72.8176 6.33052 72.8857 6.49219 72.8857 6.68619C72.8857 6.76379 72.8721 6.84139 72.8448 6.91899C72.8176 6.99659 72.7564 7.10652 72.6611 7.24879C72.5794 7.37812 72.4501 7.54625 72.2731 7.75319C72.0961 7.94719 71.8579 8.19939 71.5584 8.50979L68.72 11.4392L73.192 17.492C73.3009 17.6343 73.3826 17.783 73.437 17.9382C73.5051 18.0934 73.5391 18.2421 73.5391 18.3844C73.5391 18.6301 73.4642 18.8306 73.3145 18.9858C73.1784 19.1539 72.9333 19.238 72.5794 19.238C72.2935 19.238 72.0348 19.1604 71.8034 19.0052C71.5856 18.8629 71.3814 18.6495 71.1908 18.365L67.3111 12.9136L65.5549 14.7372C65.5413 15.2287 65.5277 15.7201 65.5141 16.2116C65.5005 16.7031 65.4801 17.2204 65.4528 17.7636C65.4392 18.074 65.4052 18.3133 65.3507 18.4814C65.3099 18.6495 65.2486 18.7789 65.167 18.8694C65.0853 18.9599 64.99 19.0117 64.8811 19.0246C64.7858 19.0505 64.6701 19.0634 64.534 19.0634C64.2889 19.0634 64.0847 18.9858 63.9214 18.8306C63.758 18.6625 63.6627 18.3133 63.6355 17.783Z" fill="currentColor"/>
<path d="M75.3424 17.783C75.3152 17.3045 75.288 16.7613 75.2608 16.1534C75.2472 15.5326 75.2403 14.8536 75.2403 14.1164C75.2403 13.1981 75.2472 12.4157 75.2608 11.769C75.2744 11.1094 75.3084 10.5727 75.3629 10.1588C75.4309 9.73199 75.533 9.42159 75.6692 9.22759C75.8053 9.02065 75.9959 8.91719 76.2409 8.91719C76.4723 8.91719 76.6765 8.99479 76.8535 9.14999C77.0305 9.30519 77.1326 9.64145 77.1598 10.1588C77.2415 11.5168 77.2823 12.8295 77.2823 14.097C77.2823 14.7437 77.2687 15.3515 77.2415 15.9206C77.2143 16.4767 77.187 17.0911 77.1598 17.7636C77.1462 18.074 77.1122 18.3133 77.0577 18.4814C77.0169 18.6495 76.9556 18.7789 76.8739 18.8694C76.7922 18.9599 76.697 19.0117 76.5881 19.0246C76.4928 19.0505 76.377 19.0634 76.2409 19.0634C75.9959 19.0634 75.7917 18.9858 75.6283 18.8306C75.465 18.6625 75.3697 18.3133 75.3424 17.783ZM76.2613 5.40579C76.5744 5.40579 76.8603 5.52219 77.119 5.75499C77.3912 5.98779 77.5274 6.26585 77.5274 6.58919C77.5274 6.89959 77.3912 7.17119 77.119 7.40399C76.8467 7.62385 76.5404 7.73379 76.2001 7.73379C75.9142 7.73379 75.6419 7.62385 75.3833 7.40399C75.1382 7.17119 75.0157 6.88665 75.0157 6.55039C75.0157 6.23999 75.1382 5.97485 75.3833 5.75499C75.6419 5.52219 75.9346 5.40579 76.2613 5.40579Z" fill="currentColor"/>
<path d="M88.321 18.947C88.0488 18.947 87.8173 18.8435 87.6267 18.6366C87.4498 18.4297 87.3273 18.1904 87.2592 17.9188C87.0958 18.0611 86.9052 18.2033 86.6874 18.3456C86.4832 18.4879 86.245 18.6237 85.9727 18.753C85.7005 18.8694 85.401 18.9664 85.0743 19.044C84.7475 19.1216 84.3936 19.1604 84.0124 19.1604C83.5496 19.1604 83.0323 19.0893 82.4605 18.947C81.9024 18.7918 81.3715 18.5331 80.8678 18.171C80.3777 17.7959 79.9625 17.2915 79.6222 16.6578C79.2954 16.0241 79.1321 15.2287 79.1321 14.2716C79.1321 13.4568 79.2614 12.7325 79.5201 12.0988C79.7787 11.4651 80.1395 10.9348 80.6023 10.508C81.0788 10.0683 81.6369 9.73845 82.2767 9.51859C82.9302 9.28579 83.6381 9.16939 84.4004 9.16939C85.0538 9.16939 85.5711 9.24052 85.9523 9.38279C86.3335 9.52505 86.633 9.69319 86.8508 9.88719C86.8508 9.53799 86.8508 9.14352 86.8508 8.70379C86.8508 8.25112 86.8508 7.81785 86.8508 7.40399C86.8644 6.97719 86.8712 6.58919 86.8712 6.23999C86.8848 5.89079 86.8984 5.62565 86.912 5.44459C86.9393 5.00485 87.021 4.70739 87.1571 4.55219C87.2932 4.38405 87.5315 4.29999 87.8718 4.29999C88.2257 4.29999 88.464 4.38405 88.5865 4.55219C88.7226 4.70739 88.8043 4.98545 88.8315 5.38639C88.8451 5.55452 88.8519 5.78085 88.8519 6.06539C88.8655 6.34992 88.8724 6.66032 88.8724 6.99659C88.8724 7.33285 88.8724 7.67559 88.8724 8.02479C88.886 8.36105 88.8928 8.67145 88.8928 8.95599C88.8928 9.22759 88.8928 9.45392 88.8928 9.63499C88.8928 9.81605 88.8928 9.90659 88.8928 9.90659C88.8928 11.2258 88.8792 12.4415 88.8519 13.5538C88.8383 14.6661 88.8315 15.552 88.8315 16.2116C88.8587 16.3539 88.9132 16.4897 88.9949 16.619C89.0902 16.7483 89.1855 16.8777 89.2808 17.007C89.3897 17.1363 89.485 17.2721 89.5666 17.4144C89.6483 17.5567 89.6892 17.7054 89.6892 17.8606C89.6892 18.0417 89.6415 18.2033 89.5462 18.3456C89.4509 18.4749 89.3284 18.5849 89.1787 18.6754C89.0425 18.7659 88.8928 18.8371 88.7294 18.8888C88.5797 18.9276 88.4435 18.947 88.321 18.947ZM84.38 17.2398C85.224 17.2398 85.8706 17.0005 86.3199 16.522C86.7691 16.0435 86.9937 15.2545 86.9937 14.1552C86.9937 12.0471 86.1157 10.993 84.3596 10.993C83.9512 10.993 83.5564 11.0512 83.1752 11.1676C82.794 11.284 82.4537 11.4651 82.1542 11.7108C81.8683 11.9565 81.6301 12.2669 81.4395 12.642C81.2626 13.0171 81.1741 13.4633 81.1741 13.9806C81.1741 14.4074 81.2353 14.8148 81.3578 15.2028C81.494 15.5908 81.6914 15.94 81.95 16.2504C82.2223 16.5479 82.5558 16.7871 82.9506 16.9682C83.359 17.1493 83.8355 17.2398 84.38 17.2398Z" fill="currentColor"/>
<path d="M95.7794 8.85899C96.0653 8.85899 96.426 8.88485 96.8616 8.93659C97.2973 8.97539 97.7125 9.05945 98.1072 9.18879C98.502 9.30519 98.8424 9.47332 99.1282 9.69319C99.4141 9.91305 99.5571 10.1911 99.5571 10.5274C99.5571 10.7214 99.4958 10.8895 99.3733 11.0318C99.2644 11.1741 99.0874 11.2452 98.8424 11.2452C98.6654 11.2452 98.4612 11.2193 98.2298 11.1676C98.012 11.1159 97.7669 11.0577 97.4946 10.993C97.236 10.9154 96.9501 10.8507 96.637 10.799C96.3375 10.7473 96.0176 10.7214 95.6773 10.7214C95.1055 10.7214 94.6359 10.8055 94.2683 10.9736C93.9144 11.1417 93.7374 11.4069 93.7374 11.769C93.7374 11.9759 93.7987 12.1505 93.9212 12.2928C94.0573 12.4351 94.2343 12.5644 94.4521 12.6808C94.6835 12.7843 94.949 12.8748 95.2485 12.9524C95.5616 13.03 95.8883 13.1076 96.2286 13.1852C96.6506 13.2887 97.0658 13.4051 97.4742 13.5344C97.8962 13.6637 98.2706 13.8448 98.5973 14.0776C98.924 14.2975 99.1895 14.582 99.3937 14.9312C99.5979 15.2675 99.7 15.6878 99.7 16.1922C99.7 17.1493 99.3188 17.9123 98.5565 18.4814C97.7941 19.0375 96.671 19.3156 95.1872 19.3156C94.8605 19.3156 94.4725 19.2897 94.0233 19.238C93.574 19.1992 93.152 19.1151 92.7572 18.9858C92.3625 18.8694 92.0221 18.7013 91.7362 18.4814C91.464 18.2486 91.3278 17.9447 91.3278 17.5696C91.3278 17.3109 91.3891 17.1169 91.5116 16.9876C91.6478 16.8453 91.8111 16.7742 92.0017 16.7742C92.1514 16.7742 92.308 16.8195 92.4714 16.91C92.6347 17.0005 92.8321 17.0975 93.0635 17.201C93.295 17.3045 93.574 17.4015 93.9007 17.492C94.2275 17.5825 94.6291 17.6278 95.1055 17.6278C95.2825 17.6278 95.5139 17.6213 95.7998 17.6084C96.0857 17.5825 96.3647 17.5243 96.637 17.4338C96.9229 17.3433 97.1611 17.2204 97.3517 17.0652C97.5559 16.8971 97.658 16.6643 97.658 16.3668C97.658 16.134 97.5899 15.94 97.4538 15.7848C97.3177 15.6167 97.1339 15.4744 96.9025 15.358C96.671 15.2416 96.3988 15.1446 96.0857 15.067C95.7862 14.9765 95.4663 14.8859 95.1259 14.7954C94.7312 14.6919 94.3296 14.5755 93.9212 14.4462C93.5264 14.3169 93.1656 14.1487 92.8389 13.9418C92.5122 13.7349 92.2467 13.4762 92.0425 13.1658C91.8383 12.8425 91.7362 12.448 91.7362 11.9824C91.7362 11.5427 91.8315 11.1353 92.0221 10.7602C92.2127 10.3722 92.485 10.0359 92.8389 9.75139C93.1929 9.46685 93.6149 9.24699 94.105 9.09179C94.6086 8.93659 95.1668 8.85899 95.7794 8.85899Z" fill="currentColor"/>
<path d="M6.65057 5.25059C7.0998 5.25059 7.54904 5.28939 7.99828 5.36699C8.46113 5.43165 8.87633 5.54159 9.24389 5.69679C9.61145 5.83905 9.91094 6.02012 10.1424 6.23999C10.3874 6.44692 10.5099 6.69265 10.5099 6.97719C10.5099 7.27465 10.4282 7.50099 10.2649 7.65619C10.1015 7.81139 9.89733 7.88899 9.65229 7.88899C9.42086 7.88899 9.21666 7.85665 9.03969 7.79199C8.86272 7.71439 8.65852 7.63032 8.4271 7.53979C8.20928 7.44925 7.94383 7.37165 7.63072 7.30699C7.31762 7.22939 6.90241 7.19059 6.38511 7.19059C5.86781 7.19059 5.37092 7.31992 4.89446 7.57859C4.43161 7.82432 4.02321 8.17352 3.66927 8.62619C3.32893 9.06592 3.05667 9.58972 2.85247 10.1976C2.64827 10.8055 2.54617 11.4651 2.54617 12.1764C2.54617 13.0559 2.66189 13.8125 2.89331 14.4462C3.13835 15.0799 3.45145 15.6037 3.83263 16.0176C4.2138 16.4185 4.64261 16.7225 5.11908 16.9294C5.60915 17.1234 6.09923 17.2204 6.58931 17.2204C7.17468 17.2204 7.66475 17.1622 8.05954 17.0458C8.45432 16.9294 8.78785 16.8001 9.06011 16.6578C9.34599 16.5155 9.59103 16.3862 9.79523 16.2698C9.99943 16.1534 10.1968 16.0952 10.3874 16.0952C10.6188 16.0952 10.8026 16.1599 10.9387 16.2892C11.0749 16.4056 11.1429 16.619 11.1429 16.9294C11.1429 17.1881 11.034 17.4532 10.8162 17.7248C10.612 17.9835 10.3057 18.2227 9.89733 18.4426C9.50254 18.6495 9.02608 18.8241 8.46794 18.9664C7.90979 19.0957 7.28358 19.1604 6.58931 19.1604C5.82697 19.1604 5.06462 19.0181 4.30228 18.7336C3.55355 18.4491 2.8797 18.0287 2.28072 17.4726C1.69535 16.9035 1.21888 16.1987 0.851324 15.358C0.483767 14.5044 0.299988 13.515 0.299988 12.3898C0.299988 11.2646 0.463347 10.2623 0.790065 9.38279C1.1304 8.50332 1.58644 7.75965 2.1582 7.15179C2.74357 6.53099 3.41742 6.05892 4.17976 5.73559C4.95572 5.41225 5.77932 5.25059 6.65057 5.25059Z" stroke="currentColor" stroke-width="0.6" mask="url(#path-1-outside-1_37_2841)"/>
<path d="M13.0549 17.8024C13.0005 17.3497 12.9664 16.8001 12.9528 16.1534C12.9392 15.5067 12.9324 14.7243 12.9324 13.806C12.9324 12.9007 12.9324 12.1699 12.9324 11.6138C12.946 11.0577 12.9868 10.5662 13.0549 10.1394C13.123 9.60912 13.2251 9.26639 13.3612 9.11119C13.511 8.95599 13.7015 8.87839 13.933 8.87839C14.0963 8.87839 14.2393 8.89132 14.3618 8.91719C14.4979 8.94305 14.6136 9.00125 14.7089 9.09179C14.8178 9.16939 14.8995 9.28579 14.954 9.44099C15.0084 9.59619 15.0356 9.80959 15.0356 10.0812C15.0356 10.1329 15.0424 10.1847 15.0561 10.2364C15.0561 10.2881 15.0561 10.3463 15.0561 10.411C15.0697 10.4627 15.0765 10.5274 15.0765 10.605C15.444 10.1653 15.8592 9.79019 16.3221 9.47979C16.7985 9.16939 17.3363 9.01419 17.9353 9.01419C18.7384 9.01419 19.14 9.33105 19.14 9.96479C19.14 10.1976 19.0856 10.3916 18.9767 10.5468C18.8814 10.702 18.7384 10.8313 18.5479 10.9348C18.3709 11.0253 18.1599 11.0965 17.9148 11.1482C17.6834 11.1999 17.4248 11.2517 17.1389 11.3034C16.7033 11.381 16.2949 11.5297 15.9137 11.7496C15.5325 11.9565 15.2739 12.2217 15.1377 12.545C15.1377 12.7907 15.1377 12.9718 15.1377 13.0882C15.1513 13.2046 15.1582 13.3016 15.1582 13.3792C15.1718 13.4568 15.1786 13.5409 15.1786 13.6314C15.1786 13.7219 15.1786 13.8642 15.1786 14.0582C15.1786 14.7178 15.165 15.3386 15.1377 15.9206C15.1105 16.4897 15.0833 17.1105 15.0561 17.783C15.0424 18.0934 15.0016 18.3327 14.9335 18.5008C14.8791 18.6689 14.8042 18.7983 14.7089 18.8888C14.6272 18.9793 14.5319 19.0311 14.423 19.044C14.3141 19.0699 14.2052 19.0828 14.0963 19.0828C13.7151 19.0828 13.4565 19.0052 13.3204 18.85C13.1978 18.6819 13.1094 18.3327 13.0549 17.8024Z" stroke="currentColor" stroke-width="0.6" mask="url(#path-1-outside-1_37_2841)"/>
<path d="M24.1061 22.536C23.9292 22.8335 23.759 23.0533 23.5956 23.1956C23.4459 23.3379 23.2689 23.409 23.0647 23.409C22.8741 23.409 22.6835 23.3508 22.493 23.2344C22.3024 23.118 22.2071 22.9563 22.2071 22.7494C22.2071 22.5554 22.2751 22.2773 22.4113 21.9152C22.561 21.5531 22.738 21.1586 22.9422 20.7318C23.16 20.305 23.3846 19.8653 23.616 19.4126C23.8475 18.9599 24.0585 18.5461 24.2491 18.171L24.392 17.88C23.9836 17.1169 23.5616 16.3021 23.126 15.4356C22.704 14.5691 22.316 13.7478 21.962 12.9718C21.6081 12.1958 21.3154 11.5233 21.084 10.9542C20.8662 10.3722 20.7573 9.99065 20.7573 9.80959C20.7573 9.64145 20.8253 9.49919 20.9615 9.38279C21.1112 9.25345 21.295 9.18879 21.5128 9.18879C21.7034 9.18879 21.8872 9.22759 22.0641 9.30519C22.2411 9.36985 22.4045 9.52505 22.5542 9.77079C22.772 10.1588 22.9966 10.605 23.2281 11.1094C23.4731 11.6009 23.7113 12.1182 23.9428 12.6614C24.1878 13.2046 24.4328 13.7543 24.6779 14.3104C24.9365 14.8665 25.1952 15.4033 25.4538 15.9206C25.7533 15.3903 26.0732 14.8342 26.4136 14.2522C26.7539 13.6702 27.0806 13.1076 27.3937 12.5644C27.7204 12.0212 28.0199 11.5233 28.2922 11.0706C28.5645 10.605 28.7959 10.217 28.9865 9.90659C29.1771 9.60912 29.3676 9.39572 29.5582 9.26639C29.7488 9.13705 29.9462 9.07239 30.1504 9.07239C30.2865 9.07239 30.4227 9.13059 30.5588 9.24699C30.6949 9.35045 30.763 9.49272 30.763 9.67379C30.763 9.94539 30.6337 10.3851 30.375 10.993C30.13 11.5879 29.8101 12.2799 29.4153 13.0688C29.0205 13.8577 28.5713 14.7049 28.0676 15.6102C27.5775 16.5026 27.0874 17.3821 26.5973 18.2486C26.1073 19.1022 25.6376 19.9041 25.1884 20.6542C24.7528 21.4043 24.392 22.0316 24.1061 22.536Z" stroke="currentColor" stroke-width="0.6" mask="url(#path-1-outside-1_37_2841)"/>
<path d="M34.5116 21.7794C34.5116 22.0251 34.5048 22.2579 34.4912 22.4778C34.4776 22.7106 34.43 22.9175 34.3483 23.0986C34.2802 23.2797 34.1713 23.4219 34.0216 23.5254C33.8854 23.6418 33.688 23.7 33.4294 23.7C33.1299 23.7 32.8781 23.5965 32.6739 23.3896C32.4833 23.1956 32.3744 22.8464 32.3471 22.342C32.3335 22.0187 32.3131 21.6242 32.2859 21.1586C32.2586 20.693 32.2314 20.2015 32.2042 19.6842C32.1906 19.1669 32.1702 18.6495 32.1429 18.1322C32.1293 17.6149 32.1225 17.1363 32.1225 16.6966C32.1225 15.1834 32.2314 13.9353 32.4492 12.9524C32.6807 11.9695 33.021 11.187 33.4702 10.605C33.9195 10.023 34.4708 9.61559 35.1242 9.38279C35.7913 9.14999 36.5604 9.03359 37.4317 9.03359C38.126 9.03359 38.7794 9.13705 39.392 9.34399C40.0046 9.53799 40.5355 9.84839 40.9847 10.2752C41.4476 10.6891 41.8151 11.2323 42.0874 11.9048C42.3597 12.5644 42.4958 13.3598 42.4958 14.291C42.4958 15.067 42.3529 15.7525 42.067 16.3474C41.7947 16.9423 41.4136 17.4467 40.9235 17.8606C40.4334 18.2615 39.8548 18.5719 39.1878 18.7918C38.5344 18.9987 37.8333 19.1022 37.0845 19.1022C36.4447 19.1022 35.8662 18.9793 35.3489 18.7336C34.8452 18.4749 34.4844 18.1969 34.2666 17.8994C34.3347 18.6237 34.3891 19.2962 34.43 19.917C34.4844 20.5378 34.5116 21.1586 34.5116 21.7794ZM37.3296 10.9736C36.8531 10.9736 36.4379 11.0512 36.084 11.2064C35.7436 11.3616 35.4646 11.575 35.2468 11.8466C35.0289 12.1182 34.8656 12.4415 34.7567 12.8166C34.6614 13.1917 34.6137 13.5991 34.6137 14.0388C34.6137 14.4656 34.6546 14.873 34.7363 15.261C34.8316 15.6361 34.9813 15.9659 35.1855 16.2504C35.3897 16.5349 35.662 16.7613 36.0023 16.9294C36.3426 17.0975 36.7578 17.1816 37.2479 17.1816C37.6291 17.1816 37.9966 17.1363 38.3506 17.0458C38.7045 16.9423 39.0176 16.7742 39.2899 16.5414C39.5758 16.3086 39.8004 15.9982 39.9637 15.6102C40.1407 15.2222 40.2292 14.7372 40.2292 14.1552C40.2292 13.5603 40.1407 13.0623 39.9637 12.6614C39.8004 12.2475 39.5758 11.9177 39.2899 11.672C39.0176 11.4133 38.7045 11.2323 38.3506 11.1288C38.0102 11.0253 37.6699 10.9736 37.3296 10.9736Z" stroke="currentColor" stroke-width="0.6" mask="url(#path-1-outside-1_37_2841)"/>
<path d="M45.8672 17.7248C45.8263 16.91 45.7991 15.9465 45.7855 14.8342C45.7855 13.709 45.7855 12.4351 45.7855 11.0124C45.6493 11.0253 45.486 11.0318 45.2954 11.0318C45.1184 11.0318 44.9755 11.0318 44.8666 11.0318C44.6215 11.0318 44.3969 11.0253 44.1927 11.0124C44.0021 10.9995 43.832 10.9607 43.6822 10.896C43.5325 10.8313 43.4168 10.7408 43.3351 10.6244C43.2534 10.4951 43.2126 10.3205 43.2126 10.1006C43.2126 9.47979 43.7027 9.16939 44.6828 9.16939C44.8326 9.16939 45.0163 9.16939 45.2341 9.16939C45.452 9.16939 45.6357 9.18232 45.7855 9.20819C45.7855 8.52272 45.7991 7.97305 45.8263 7.55919C45.8535 7.14532 45.9012 6.82845 45.9693 6.60859C46.0509 6.37579 46.153 6.22705 46.2756 6.16239C46.4117 6.08479 46.5819 6.04599 46.7861 6.04599C47.0039 6.04599 47.1808 6.11712 47.317 6.25939C47.4531 6.40165 47.5552 6.58272 47.6233 6.80259C47.7049 7.02245 47.7526 7.26819 47.7662 7.53979C47.7934 7.81139 47.807 8.07652 47.807 8.33519C47.807 8.51625 47.8002 8.68439 47.7866 8.83959C47.7866 8.98185 47.7866 9.11119 47.7866 9.22759C47.9772 9.17585 48.1746 9.14999 48.3788 9.14999C48.583 9.13705 48.7804 9.13059 48.971 9.13059C49.4747 9.13059 49.8626 9.20819 50.1349 9.36339C50.4072 9.50565 50.5433 9.74492 50.5433 10.0812C50.5433 10.2881 50.4957 10.4563 50.4004 10.5856C50.3051 10.702 50.1758 10.7925 50.0124 10.8572C49.8626 10.9219 49.6789 10.9671 49.4611 10.993C49.2569 11.0059 49.0322 11.0124 48.7872 11.0124C48.6511 11.0124 48.4945 11.0124 48.3175 11.0124C48.1406 11.0124 47.9772 10.9995 47.8275 10.9736C47.8275 11.6591 47.8275 12.2863 47.8275 12.8554C47.8275 13.4245 47.8207 13.9741 47.807 14.5044C47.7934 15.0217 47.7798 15.5391 47.7662 16.0564C47.7526 16.5737 47.7322 17.1234 47.7049 17.7054C47.6913 18.0158 47.6573 18.2551 47.6028 18.4232C47.562 18.5913 47.5007 18.7207 47.4191 18.8112C47.3374 18.9017 47.2421 18.9599 47.1332 18.9858C47.0379 18.9987 46.9222 19.0052 46.7861 19.0052C46.541 19.0052 46.33 18.9276 46.153 18.7724C45.9897 18.6043 45.8944 18.2551 45.8672 17.7248Z" stroke="currentColor" stroke-width="0.6" mask="url(#path-1-outside-1_37_2841)"/>
<path d="M56.7447 9.14999C57.5207 9.14999 58.215 9.26639 58.8276 9.49919C59.4402 9.71905 59.9575 10.0359 60.3795 10.4498C60.8151 10.8637 61.1486 11.3681 61.38 11.963C61.6115 12.5579 61.7272 13.224 61.7272 13.9612C61.7272 14.776 61.591 15.5067 61.3188 16.1534C61.0601 16.8001 60.6926 17.3497 60.2161 17.8024C59.7533 18.2551 59.1951 18.6043 58.5417 18.85C57.9019 19.0957 57.2008 19.2186 56.4384 19.2186C55.608 19.2186 54.8729 19.0828 54.2331 18.8112C53.6069 18.5396 53.076 18.171 52.6403 17.7054C52.2183 17.2398 51.8984 16.7031 51.6806 16.0952C51.4628 15.4873 51.3539 14.8471 51.3539 14.1746C51.3539 13.4374 51.4764 12.7649 51.7214 12.157C51.9801 11.5362 52.3408 11.0059 52.8037 10.5662C53.2802 10.1135 53.8519 9.76432 54.519 9.51859C55.186 9.27285 55.9279 9.14999 56.7447 9.14999ZM56.5201 17.4338C57.0783 17.4338 57.5547 17.3433 57.9495 17.1622C58.3443 16.9682 58.6642 16.716 58.9092 16.4056C59.1679 16.0952 59.3517 15.746 59.4606 15.358C59.5831 14.9571 59.6444 14.5432 59.6444 14.1164C59.6444 13.6767 59.5831 13.2693 59.4606 12.8942C59.3517 12.5062 59.1747 12.1699 58.9297 11.8854C58.6982 11.6009 58.3919 11.381 58.0108 11.2258C57.6432 11.0577 57.2008 10.9736 56.6835 10.9736C56.1526 10.9736 55.6897 11.0577 55.2949 11.2258C54.9001 11.3939 54.5666 11.6267 54.2943 11.9242C54.0357 12.2087 53.8383 12.5515 53.7022 12.9524C53.566 13.3533 53.498 13.7866 53.498 14.2522C53.498 15.1963 53.7498 15.9659 54.2535 16.5608C54.7708 17.1428 55.5263 17.4338 56.5201 17.4338Z" stroke="currentColor" stroke-width="0.6" mask="url(#path-1-outside-1_37_2841)"/>
<path d="M63.6355 17.783C63.6082 17.3174 63.5878 16.8324 63.5742 16.328C63.5742 15.8236 63.5674 15.2804 63.5538 14.6984C63.5402 14.1164 63.5334 13.4891 63.5334 12.8166C63.5334 12.1311 63.5334 11.3681 63.5334 10.5274C63.5334 9.60912 63.5402 8.82665 63.5538 8.17999C63.5674 7.52039 63.6014 6.98365 63.6559 6.56979C63.724 6.15592 63.8261 5.85199 63.9622 5.65799C64.0983 5.46399 64.2889 5.36699 64.534 5.36699C64.7654 5.36699 64.9696 5.43812 65.1465 5.58039C65.3235 5.72265 65.4256 6.05245 65.4528 6.56979C65.4801 7.03539 65.5005 7.44925 65.5141 7.81139C65.5277 8.17352 65.5413 8.53565 65.5549 8.89779C65.5686 9.24699 65.5754 9.61559 65.5754 10.0036C65.5754 10.3787 65.5754 10.8055 65.5754 11.284V12.2928L69.9452 7.53979C70.517 6.91899 70.9594 6.51159 71.2725 6.31759C71.5856 6.11065 71.8579 6.00719 72.0893 6.00719C72.3616 6.00719 72.559 6.07185 72.6815 6.20119C72.8176 6.33052 72.8857 6.49219 72.8857 6.68619C72.8857 6.76379 72.8721 6.84139 72.8448 6.91899C72.8176 6.99659 72.7564 7.10652 72.6611 7.24879C72.5794 7.37812 72.4501 7.54625 72.2731 7.75319C72.0961 7.94719 71.8579 8.19939 71.5584 8.50979L68.72 11.4392L73.192 17.492C73.3009 17.6343 73.3826 17.783 73.437 17.9382C73.5051 18.0934 73.5391 18.2421 73.5391 18.3844C73.5391 18.6301 73.4642 18.8306 73.3145 18.9858C73.1784 19.1539 72.9333 19.238 72.5794 19.238C72.2935 19.238 72.0348 19.1604 71.8034 19.0052C71.5856 18.8629 71.3814 18.6495 71.1908 18.365L67.3111 12.9136L65.5549 14.7372C65.5413 15.2287 65.5277 15.7201 65.5141 16.2116C65.5005 16.7031 65.4801 17.2204 65.4528 17.7636C65.4392 18.074 65.4052 18.3133 65.3507 18.4814C65.3099 18.6495 65.2486 18.7789 65.167 18.8694C65.0853 18.9599 64.99 19.0117 64.8811 19.0246C64.7858 19.0505 64.6701 19.0634 64.534 19.0634C64.2889 19.0634 64.0847 18.9858 63.9214 18.8306C63.758 18.6625 63.6627 18.3133 63.6355 17.783Z" stroke="currentColor" stroke-width="0.6" mask="url(#path-1-outside-1_37_2841)"/>
<path d="M75.3424 17.783C75.3152 17.3045 75.288 16.7613 75.2608 16.1534C75.2472 15.5326 75.2403 14.8536 75.2403 14.1164C75.2403 13.1981 75.2472 12.4157 75.2608 11.769C75.2744 11.1094 75.3084 10.5727 75.3629 10.1588C75.4309 9.73199 75.533 9.42159 75.6692 9.22759C75.8053 9.02065 75.9959 8.91719 76.2409 8.91719C76.4723 8.91719 76.6765 8.99479 76.8535 9.14999C77.0305 9.30519 77.1326 9.64145 77.1598 10.1588C77.2415 11.5168 77.2823 12.8295 77.2823 14.097C77.2823 14.7437 77.2687 15.3515 77.2415 15.9206C77.2143 16.4767 77.187 17.0911 77.1598 17.7636C77.1462 18.074 77.1122 18.3133 77.0577 18.4814C77.0169 18.6495 76.9556 18.7789 76.8739 18.8694C76.7922 18.9599 76.697 19.0117 76.5881 19.0246C76.4928 19.0505 76.377 19.0634 76.2409 19.0634C75.9959 19.0634 75.7917 18.9858 75.6283 18.8306C75.465 18.6625 75.3697 18.3133 75.3424 17.783ZM76.2613 5.40579C76.5744 5.40579 76.8603 5.52219 77.119 5.75499C77.3912 5.98779 77.5274 6.26585 77.5274 6.58919C77.5274 6.89959 77.3912 7.17119 77.119 7.40399C76.8467 7.62385 76.5404 7.73379 76.2001 7.73379C75.9142 7.73379 75.6419 7.62385 75.3833 7.40399C75.1382 7.17119 75.0157 6.88665 75.0157 6.55039C75.0157 6.23999 75.1382 5.97485 75.3833 5.75499C75.6419 5.52219 75.9346 5.40579 76.2613 5.40579Z" stroke="currentColor" stroke-width="0.6" mask="url(#path-1-outside-1_37_2841)"/>
<path d="M88.321 18.947C88.0488 18.947 87.8173 18.8435 87.6267 18.6366C87.4498 18.4297 87.3273 18.1904 87.2592 17.9188C87.0958 18.0611 86.9052 18.2033 86.6874 18.3456C86.4832 18.4879 86.245 18.6237 85.9727 18.753C85.7005 18.8694 85.401 18.9664 85.0743 19.044C84.7475 19.1216 84.3936 19.1604 84.0124 19.1604C83.5496 19.1604 83.0323 19.0893 82.4605 18.947C81.9024 18.7918 81.3715 18.5331 80.8678 18.171C80.3777 17.7959 79.9625 17.2915 79.6222 16.6578C79.2954 16.0241 79.1321 15.2287 79.1321 14.2716C79.1321 13.4568 79.2614 12.7325 79.5201 12.0988C79.7787 11.4651 80.1395 10.9348 80.6023 10.508C81.0788 10.0683 81.6369 9.73845 82.2767 9.51859C82.9302 9.28579 83.6381 9.16939 84.4004 9.16939C85.0538 9.16939 85.5711 9.24052 85.9523 9.38279C86.3335 9.52505 86.633 9.69319 86.8508 9.88719C86.8508 9.53799 86.8508 9.14352 86.8508 8.70379C86.8508 8.25112 86.8508 7.81785 86.8508 7.40399C86.8644 6.97719 86.8712 6.58919 86.8712 6.23999C86.8848 5.89079 86.8984 5.62565 86.912 5.44459C86.9393 5.00485 87.021 4.70739 87.1571 4.55219C87.2932 4.38405 87.5315 4.29999 87.8718 4.29999C88.2257 4.29999 88.464 4.38405 88.5865 4.55219C88.7226 4.70739 88.8043 4.98545 88.8315 5.38639C88.8451 5.55452 88.8519 5.78085 88.8519 6.06539C88.8655 6.34992 88.8724 6.66032 88.8724 6.99659C88.8724 7.33285 88.8724 7.67559 88.8724 8.02479C88.886 8.36105 88.8928 8.67145 88.8928 8.95599C88.8928 9.22759 88.8928 9.45392 88.8928 9.63499C88.8928 9.81605 88.8928 9.90659 88.8928 9.90659C88.8928 11.2258 88.8792 12.4415 88.8519 13.5538C88.8383 14.6661 88.8315 15.552 88.8315 16.2116C88.8587 16.3539 88.9132 16.4897 88.9949 16.619C89.0902 16.7483 89.1855 16.8777 89.2808 17.007C89.3897 17.1363 89.485 17.2721 89.5666 17.4144C89.6483 17.5567 89.6892 17.7054 89.6892 17.8606C89.6892 18.0417 89.6415 18.2033 89.5462 18.3456C89.4509 18.4749 89.3284 18.5849 89.1787 18.6754C89.0425 18.7659 88.8928 18.8371 88.7294 18.8888C88.5797 18.9276 88.4435 18.947 88.321 18.947ZM84.38 17.2398C85.224 17.2398 85.8706 17.0005 86.3199 16.522C86.7691 16.0435 86.9937 15.2545 86.9937 14.1552C86.9937 12.0471 86.1157 10.993 84.3596 10.993C83.9512 10.993 83.5564 11.0512 83.1752 11.1676C82.794 11.284 82.4537 11.4651 82.1542 11.7108C81.8683 11.9565 81.6301 12.2669 81.4395 12.642C81.2626 13.0171 81.1741 13.4633 81.1741 13.9806C81.1741 14.4074 81.2353 14.8148 81.3578 15.2028C81.494 15.5908 81.6914 15.94 81.95 16.2504C82.2223 16.5479 82.5558 16.7871 82.9506 16.9682C83.359 17.1493 83.8355 17.2398 84.38 17.2398Z" stroke="currentColor" stroke-width="0.6" mask="url(#path-1-outside-1_37_2841)"/>
<path d="M95.7794 8.85899C96.0653 8.85899 96.426 8.88485 96.8616 8.93659C97.2973 8.97539 97.7125 9.05945 98.1072 9.18879C98.502 9.30519 98.8424 9.47332 99.1282 9.69319C99.4141 9.91305 99.5571 10.1911 99.5571 10.5274C99.5571 10.7214 99.4958 10.8895 99.3733 11.0318C99.2644 11.1741 99.0874 11.2452 98.8424 11.2452C98.6654 11.2452 98.4612 11.2193 98.2298 11.1676C98.012 11.1159 97.7669 11.0577 97.4946 10.993C97.236 10.9154 96.9501 10.8507 96.637 10.799C96.3375 10.7473 96.0176 10.7214 95.6773 10.7214C95.1055 10.7214 94.6359 10.8055 94.2683 10.9736C93.9144 11.1417 93.7374 11.4069 93.7374 11.769C93.7374 11.9759 93.7987 12.1505 93.9212 12.2928C94.0573 12.4351 94.2343 12.5644 94.4521 12.6808C94.6835 12.7843 94.949 12.8748 95.2485 12.9524C95.5616 13.03 95.8883 13.1076 96.2286 13.1852C96.6506 13.2887 97.0658 13.4051 97.4742 13.5344C97.8962 13.6637 98.2706 13.8448 98.5973 14.0776C98.924 14.2975 99.1895 14.582 99.3937 14.9312C99.5979 15.2675 99.7 15.6878 99.7 16.1922C99.7 17.1493 99.3188 17.9123 98.5565 18.4814C97.7941 19.0375 96.671 19.3156 95.1872 19.3156C94.8605 19.3156 94.4725 19.2897 94.0233 19.238C93.574 19.1992 93.152 19.1151 92.7572 18.9858C92.3625 18.8694 92.0221 18.7013 91.7362 18.4814C91.464 18.2486 91.3278 17.9447 91.3278 17.5696C91.3278 17.3109 91.3891 17.1169 91.5116 16.9876C91.6478 16.8453 91.8111 16.7742 92.0017 16.7742C92.1514 16.7742 92.308 16.8195 92.4714 16.91C92.6347 17.0005 92.8321 17.0975 93.0635 17.201C93.295 17.3045 93.574 17.4015 93.9007 17.492C94.2275 17.5825 94.6291 17.6278 95.1055 17.6278C95.2825 17.6278 95.5139 17.6213 95.7998 17.6084C96.0857 17.5825 96.3647 17.5243 96.637 17.4338C96.9229 17.3433 97.1611 17.2204 97.3517 17.0652C97.5559 16.8971 97.658 16.6643 97.658 16.3668C97.658 16.134 97.5899 15.94 97.4538 15.7848C97.3177 15.6167 97.1339 15.4744 96.9025 15.358C96.671 15.2416 96.3988 15.1446 96.0857 15.067C95.7862 14.9765 95.4663 14.8859 95.1259 14.7954C94.7312 14.6919 94.3296 14.5755 93.9212 14.4462C93.5264 14.3169 93.1656 14.1487 92.8389 13.9418C92.5122 13.7349 92.2467 13.4762 92.0425 13.1658C91.8383 12.8425 91.7362 12.448 91.7362 11.9824C91.7362 11.5427 91.8315 11.1353 92.0221 10.7602C92.2127 10.3722 92.485 10.0359 92.8389 9.75139C93.1929 9.46685 93.6149 9.24699 94.105 9.09179C94.6086 8.93659 95.1668 8.85899 95.7794 8.85899Z" stroke="currentColor" stroke-width="0.6" mask="url(#path-1-outside-1_37_2841)"/>
</svg>
